<?xml version="1.0" encoding="UTF-8" standalone="no"?>
<!-- Created with Inkscape (http://www.inkscape.org/) -->

<svg
   version="1.1"
   id="svg148"
   width="592.17627"
   height="85.144257"
   viewBox="0 0 592.17627 85.144257"
   sodipodi:docname="logo.svg"
   inkscape:version="1.2.2 (732a01da63, 2022-12-09, custom)"
   xmlns:inkscape="http://www.inkscape.org/namespaces/inkscape"
   xmlns:sodipodi="http://sodipodi.sourceforge.net/DTD/sodipodi-0.dtd"
   xmlns="http://www.w3.org/2000/svg"
   xmlns:svg="http://www.w3.org/2000/svg">
  <defs
     id="defs152">
    <clipPath
       clipPathUnits="userSpaceOnUse"
       id="clipPath258">
      <path
         d="M 0,576 H 768 V 0 H 0 Z"
         id="path256" />
    </clipPath>
    <clipPath
       clipPathUnits="userSpaceOnUse"
       id="clipPath318">
      <path
         d="M 0,576 H 768 V 0 H 0 Z"
         id="path316" />
    </clipPath>
  </defs>
  <sodipodi:namedview
     id="namedview150"
     pagecolor="#505050"
     bordercolor="#ffffff"
     borderopacity="1"
     inkscape:showpageshadow="0"
     inkscape:pageopacity="0"
     inkscape:pagecheckerboard="1"
     inkscape:deskcolor="#505050"
     showgrid="false"
     inkscape:zoom="0.75406308"
     inkscape:cx="272.52362"
     inkscape:cy="-8.6199685"
     inkscape:window-width="1360"
     inkscape:window-height="737"
     inkscape:window-x="0"
     inkscape:window-y="0"
     inkscape:window-maximized="1"
     inkscape:current-layer="g254" />
  <g
     id="g156"
     inkscape:groupmode="layer"
     inkscape:label="ForteProject"
     transform="matrix(1.3333333,0,0,-1.3333333,-216.5488,425.92572)">
    <g
       id="g254"
       clip-path="url(#clipPath258)"
       inkscape:label="Logoname">
      <path
         d="M 0,0 H 20.038 V -5.633 H 6.106 v -7.396 h 12.986 v -5.375 H 6.106 V -31.39 H 0 Z"
         style="fill:#9d9e92;fill-opacity:1;fill-rule:nonzero;stroke:none"
         id="path306"
         transform="translate(162.4116,318.8164)"
         inkscape:label="F" />
      <path
         d="m 0,0 c -0.042,0 -0.125,-0.008 -0.183,-0.016 -0.059,-0.008 -0.156,-0.027 -0.219,-0.043 -0.062,-0.016 -0.183,-0.062 -0.266,-0.105 -0.085,-0.039 -0.21,-0.114 -0.277,-0.164 -0.07,-0.055 -0.16,-0.137 -0.203,-0.184 -0.043,-0.047 -0.117,-0.145 -0.164,-0.215 -0.047,-0.07 -0.106,-0.18 -0.137,-0.25 -0.027,-0.066 -0.066,-0.176 -0.082,-0.246 -0.015,-0.066 -0.031,-0.199 -0.039,-0.297 l -0.008,-0.179 -0.031,-0.008 c -0.019,-0.004 -0.133,-0.02 -0.254,-0.039 -0.121,-0.016 -0.332,-0.051 -0.469,-0.079 -0.14,-0.023 -0.328,-0.062 -0.421,-0.082 -0.09,-0.019 -0.301,-0.074 -0.469,-0.113 -0.164,-0.043 -0.43,-0.117 -0.582,-0.168 -0.156,-0.047 -0.305,-0.094 -0.328,-0.105 -0.024,-0.008 -0.039,-0.024 -0.039,-0.035 0,-0.012 0.152,-1.129 0.339,-2.485 0.192,-1.351 0.352,-2.531 0.36,-2.621 0.008,-0.094 0.031,-0.215 0.054,-0.289 0.02,-0.07 0.063,-0.176 0.098,-0.238 0.031,-0.059 0.09,-0.149 0.125,-0.199 0.039,-0.047 0.11,-0.122 0.156,-0.165 0.047,-0.042 0.114,-0.101 0.153,-0.124 0.035,-0.028 0.121,-0.075 0.191,-0.106 0.07,-0.035 0.18,-0.078 0.246,-0.094 l 0.121,-0.035 2.282,-0.004 c 1.574,-0.004 2.324,0 2.425,0.012 0.079,0.008 0.2,0.035 0.274,0.059 0.07,0.023 0.164,0.062 0.207,0.085 0.039,0.024 0.113,0.071 0.164,0.106 0.051,0.035 0.125,0.101 0.168,0.148 0.043,0.043 0.105,0.114 0.137,0.157 0.031,0.039 0.078,0.117 0.105,0.172 0.027,0.054 0.066,0.16 0.09,0.226 0.027,0.086 0.047,0.191 0.055,0.32 0.011,0.106 0.156,1.282 0.328,2.618 0.172,1.332 0.308,2.429 0.304,2.437 -0.003,0.012 -0.136,0.059 -0.3,0.113 C 3.75,-2.184 3.528,-2.117 3.418,-2.086 3.313,-2.055 3.098,-2 2.95,-1.965 2.797,-1.93 2.551,-1.875 2.403,-1.848 2.25,-1.817 2.028,-1.778 1.907,-1.762 1.786,-1.742 1.672,-1.727 1.657,-1.723 L 1.622,-1.715 1.614,-1.543 C 1.61,-1.449 1.594,-1.325 1.582,-1.266 1.571,-1.207 1.547,-1.121 1.528,-1.075 1.512,-1.028 1.469,-0.926 1.43,-0.852 1.391,-0.778 1.313,-0.66 1.258,-0.59 1.2,-0.52 1.094,-0.414 1.024,-0.36 0.946,-0.297 0.832,-0.223 0.731,-0.172 0.637,-0.125 0.512,-0.075 0.45,-0.059 0.387,-0.043 0.278,-0.024 0.204,-0.012 0.133,-0.004 0.043,0 0,0 M -5.468,-2.86 C -5.472,-2.844 -5.57,-2.887 -5.757,-2.981 -5.91,-3.059 -6.152,-3.192 -6.296,-3.274 -6.437,-3.356 -6.671,-3.496 -6.812,-3.586 -6.957,-3.676 -7.195,-3.84 -7.347,-3.946 -7.496,-4.051 -7.699,-4.203 -7.8,-4.282 -7.902,-4.364 -8.042,-4.477 -8.121,-4.539 -8.195,-4.602 -8.343,-4.735 -8.453,-4.828 -8.562,-4.926 -8.792,-5.145 -8.964,-5.317 -9.136,-5.489 -9.355,-5.719 -9.449,-5.828 -9.546,-5.934 -9.675,-6.086 -9.738,-6.16 c -0.066,-0.075 -0.18,-0.219 -0.258,-0.321 -0.078,-0.101 -0.23,-0.304 -0.339,-0.453 -0.106,-0.152 -0.27,-0.391 -0.36,-0.535 -0.09,-0.141 -0.23,-0.375 -0.312,-0.516 -0.082,-0.144 -0.211,-0.382 -0.289,-0.531 -0.075,-0.152 -0.188,-0.383 -0.246,-0.512 -0.059,-0.132 -0.168,-0.386 -0.239,-0.562 -0.07,-0.18 -0.168,-0.438 -0.215,-0.578 -0.046,-0.137 -0.121,-0.375 -0.168,-0.531 -0.043,-0.153 -0.109,-0.395 -0.144,-0.532 -0.031,-0.136 -0.086,-0.383 -0.121,-0.547 -0.031,-0.164 -0.074,-0.406 -0.098,-0.543 -0.019,-0.136 -0.051,-0.386 -0.07,-0.562 -0.016,-0.172 -0.035,-0.332 -0.039,-0.352 l -0.004,-0.031 h -0.676 c -0.394,0 -0.711,-0.008 -0.769,-0.019 -0.055,-0.008 -0.145,-0.036 -0.204,-0.059 -0.058,-0.023 -0.152,-0.078 -0.211,-0.121 -0.054,-0.043 -0.132,-0.121 -0.171,-0.172 -0.039,-0.051 -0.094,-0.137 -0.118,-0.191 -0.023,-0.055 -0.054,-0.153 -0.066,-0.219 -0.016,-0.082 -0.02,-0.164 -0.016,-0.235 0.004,-0.058 0.028,-0.16 0.047,-0.226 0.024,-0.067 0.067,-0.16 0.102,-0.215 0.031,-0.051 0.105,-0.133 0.16,-0.187 0.066,-0.063 0.144,-0.114 0.227,-0.153 0.074,-0.035 0.171,-0.07 0.246,-0.082 0.101,-0.019 2.152,-0.023 14.066,-0.023 11.684,0 13.965,0.004 14.059,0.023 0.062,0.012 0.148,0.035 0.195,0.051 0.043,0.019 0.117,0.055 0.16,0.086 0.043,0.027 0.113,0.086 0.16,0.133 0.043,0.043 0.106,0.125 0.137,0.179 0.035,0.055 0.074,0.149 0.094,0.211 0.031,0.094 0.035,0.149 0.035,0.282 0,0.14 -0.008,0.187 -0.039,0.281 -0.024,0.058 -0.063,0.148 -0.09,0.195 -0.031,0.047 -0.094,0.125 -0.145,0.176 -0.05,0.051 -0.136,0.121 -0.187,0.152 -0.055,0.032 -0.145,0.071 -0.199,0.09 l -0.098,0.031 -0.734,0.008 -0.735,0.004 -0.004,0.035 c -0.004,0.016 -0.019,0.149 -0.035,0.289 -0.011,0.145 -0.039,0.375 -0.062,0.516 -0.02,0.144 -0.059,0.387 -0.09,0.539 -0.027,0.156 -0.094,0.449 -0.141,0.648 -0.05,0.2 -0.129,0.489 -0.176,0.641 -0.042,0.149 -0.113,0.363 -0.152,0.477 -0.039,0.113 -0.129,0.351 -0.199,0.531 -0.074,0.18 -0.195,0.469 -0.273,0.641 -0.079,0.171 -0.211,0.433 -0.29,0.582 -0.078,0.148 -0.203,0.371 -0.273,0.492 -0.074,0.125 -0.199,0.332 -0.285,0.465 -0.086,0.132 -0.231,0.343 -0.32,0.468 -0.09,0.129 -0.243,0.336 -0.34,0.461 C 9.852,-6.356 9.688,-6.157 9.586,-6.035 9.481,-5.918 9.301,-5.715 9.18,-5.586 9.059,-5.461 8.875,-5.27 8.77,-5.168 8.661,-5.067 8.481,-4.895 8.364,-4.793 8.25,-4.692 8.055,-4.528 7.93,-4.426 7.805,-4.325 7.606,-4.168 7.485,-4.082 7.364,-3.992 7.176,-3.856 7.067,-3.785 6.958,-3.711 6.778,-3.59 6.665,-3.52 6.551,-3.449 6.36,-3.336 6.239,-3.266 6.118,-3.196 5.907,-3.082 5.77,-3.012 L 5.524,-2.883 5.516,-2.934 C 5.512,-2.961 5.383,-3.969 5.227,-5.172 5.075,-6.375 4.942,-7.449 4.93,-7.559 4.922,-7.668 4.899,-7.821 4.883,-7.895 4.868,-7.969 4.832,-8.094 4.809,-8.176 4.782,-8.254 4.723,-8.399 4.68,-8.492 4.633,-8.586 4.559,-8.723 4.512,-8.793 4.465,-8.867 4.387,-8.977 4.34,-9.035 4.293,-9.094 4.204,-9.192 4.141,-9.254 4.075,-9.321 3.965,-9.414 3.895,-9.469 3.825,-9.524 3.708,-9.606 3.637,-9.649 3.567,-9.692 3.454,-9.754 3.383,-9.785 3.317,-9.821 3.188,-9.871 3.106,-9.899 3.02,-9.93 2.868,-9.973 2.766,-9.996 l -0.184,-0.039 -2.449,-0.004 c -2.168,-0.008 -2.465,-0.004 -2.613,0.019 -0.094,0.012 -0.23,0.039 -0.312,0.059 -0.079,0.019 -0.2,0.054 -0.266,0.082 -0.07,0.023 -0.188,0.078 -0.266,0.117 -0.082,0.039 -0.199,0.105 -0.269,0.152 -0.071,0.043 -0.16,0.11 -0.207,0.145 -0.043,0.031 -0.145,0.129 -0.227,0.207 -0.082,0.082 -0.199,0.215 -0.262,0.297 -0.062,0.078 -0.14,0.195 -0.175,0.258 -0.036,0.058 -0.09,0.164 -0.121,0.23 -0.032,0.066 -0.079,0.184 -0.102,0.254 -0.027,0.07 -0.066,0.207 -0.086,0.305 -0.023,0.093 -0.047,0.261 -0.055,0.371 -0.007,0.109 -0.152,1.203 -0.324,2.429 -0.172,1.231 -0.312,2.247 -0.316,2.254 m -5.668,-13.007 h -1.309 v -4.739 l -0.039,-0.031 c -0.023,-0.016 -0.516,-0.293 -1.098,-0.617 l -1.05,-0.59 0.027,-0.047 c 0.016,-0.027 0.754,-1.34 1.637,-2.922 0.883,-1.578 1.609,-2.875 1.613,-2.875 0,-0.004 0.434,0.235 0.957,0.528 0.527,0.293 0.973,0.543 0.992,0.554 l 0.031,0.024 0.969,-0.559 c 0.535,-0.308 1.965,-1.137 3.18,-1.836 l 2.207,-1.273 v -2.247 h 6.703 v 2.657 l 1.957,1.129 c 1.078,0.621 2.344,1.355 2.82,1.629 l 0.864,0.496 0.988,-0.555 c 0.547,-0.301 0.992,-0.551 0.996,-0.547 0,0 0.734,1.313 1.633,2.914 0.894,1.602 1.629,2.914 1.633,2.922 0,0.008 -0.485,0.285 -1.078,0.617 l -1.079,0.606 -0.007,2.379 -0.008,2.375 -2.625,0.008 0.008,-0.036 c 0.007,-0.015 0.023,-0.117 0.039,-0.222 0.015,-0.106 0.043,-0.313 0.062,-0.465 0.016,-0.149 0.035,-0.406 0.047,-0.57 0.012,-0.176 0.012,-0.454 0.008,-0.684 -0.004,-0.211 -0.02,-0.504 -0.031,-0.645 -0.012,-0.144 -0.039,-0.363 -0.055,-0.492 -0.016,-0.125 -0.047,-0.324 -0.07,-0.441 -0.02,-0.113 -0.063,-0.313 -0.09,-0.442 -0.031,-0.128 -0.086,-0.343 -0.121,-0.472 -0.035,-0.129 -0.102,-0.34 -0.145,-0.473 -0.043,-0.129 -0.117,-0.328 -0.164,-0.445 -0.043,-0.117 -0.121,-0.301 -0.168,-0.403 -0.043,-0.105 -0.137,-0.3 -0.203,-0.433 -0.066,-0.137 -0.18,-0.348 -0.25,-0.473 -0.074,-0.125 -0.18,-0.304 -0.238,-0.394 C 8.348,-23.051 8.254,-23.192 8.2,-23.27 8.145,-23.348 8.04,-23.496 7.965,-23.598 7.891,-23.696 7.77,-23.852 7.7,-23.938 c -0.071,-0.09 -0.211,-0.25 -0.309,-0.359 -0.098,-0.106 -0.297,-0.317 -0.449,-0.461 -0.149,-0.149 -0.344,-0.332 -0.434,-0.41 -0.093,-0.078 -0.246,-0.203 -0.343,-0.281 -0.102,-0.079 -0.282,-0.219 -0.407,-0.305 -0.125,-0.09 -0.316,-0.219 -0.426,-0.289 -0.109,-0.071 -0.296,-0.184 -0.417,-0.25 -0.118,-0.071 -0.356,-0.196 -0.528,-0.282 -0.176,-0.085 -0.398,-0.191 -0.5,-0.234 -0.105,-0.043 -0.305,-0.121 -0.449,-0.176 -0.145,-0.054 -0.367,-0.129 -0.492,-0.168 -0.125,-0.039 -0.344,-0.101 -0.485,-0.136 -0.14,-0.039 -0.379,-0.09 -0.523,-0.121 -0.148,-0.028 -0.363,-0.067 -0.48,-0.082 -0.118,-0.02 -0.313,-0.043 -0.434,-0.055 -0.121,-0.012 -0.332,-0.031 -0.469,-0.039 -0.14,-0.008 -0.398,-0.016 -0.578,-0.016 -0.18,0 -0.437,0.008 -0.57,0.016 -0.133,0.008 -0.348,0.023 -0.473,0.039 -0.125,0.012 -0.34,0.039 -0.476,0.062 -0.137,0.02 -0.336,0.055 -0.442,0.075 -0.105,0.019 -0.289,0.062 -0.41,0.089 -0.121,0.032 -0.301,0.079 -0.402,0.11 -0.102,0.027 -0.278,0.082 -0.391,0.121 -0.113,0.039 -0.305,0.105 -0.426,0.152 -0.121,0.047 -0.316,0.129 -0.433,0.18 -0.118,0.055 -0.329,0.152 -0.465,0.223 -0.137,0.066 -0.344,0.179 -0.461,0.246 -0.117,0.066 -0.309,0.183 -0.422,0.254 -0.117,0.074 -0.293,0.195 -0.395,0.269 -0.101,0.07 -0.269,0.195 -0.367,0.27 -0.097,0.078 -0.265,0.214 -0.371,0.304 -0.105,0.094 -0.316,0.285 -0.465,0.434 -0.148,0.144 -0.355,0.359 -0.461,0.476 -0.105,0.118 -0.265,0.309 -0.363,0.426 -0.094,0.117 -0.242,0.317 -0.332,0.442 -0.09,0.125 -0.219,0.316 -0.289,0.425 -0.066,0.11 -0.184,0.301 -0.254,0.426 -0.07,0.125 -0.184,0.336 -0.254,0.473 -0.066,0.133 -0.16,0.332 -0.207,0.437 -0.047,0.11 -0.125,0.293 -0.168,0.407 -0.043,0.109 -0.113,0.304 -0.156,0.429 -0.043,0.129 -0.098,0.301 -0.121,0.391 -0.028,0.086 -0.071,0.254 -0.102,0.371 -0.027,0.117 -0.07,0.297 -0.09,0.402 -0.023,0.102 -0.058,0.289 -0.078,0.414 -0.019,0.125 -0.051,0.352 -0.066,0.504 -0.016,0.153 -0.039,0.418 -0.047,0.594 -0.012,0.188 -0.016,0.481 -0.012,0.699 0.008,0.211 0.02,0.496 0.035,0.633 0.012,0.137 0.032,0.301 0.039,0.363 0.008,0.063 0.028,0.207 0.047,0.321 0.016,0.113 0.032,0.218 0.036,0.23 l 0.007,0.028 z"
         style="fill:#97988c;fill-opacity:1;fill-rule:nonzero;stroke:none"
         id="path302"
         inkscape:label="Logomark"
         transform="translate(210.23,319.3872)" />
      <path
         d="m 0,0 c 2.967,0 5.16,1.849 5.16,4.386 0,2.494 -2.15,4.3 -5.16,4.3 H -4.773 V 0 Z M -10.879,13.889 H 0.817 c 6.321,0 10.836,-3.87 10.836,-9.374 0,-4.601 -3.182,-8.127 -7.955,-9.159 L 13.33,-17.5 H 5.719 L -3.139,-4.945 H -4.773 V -17.5 h -6.106 z"
         style="fill:#929288;fill-opacity:1;fill-rule:nonzero;stroke:none"
         id="path262"
         transform="translate(249.9888,304.9097)"
         inkscape:label="R" />
      <path
         d="M 0,0 H -9.89 V 5.633 H 16.039 V 0 H 6.149 V -25.756 H 0 Z"
         style="fill:#8c8d82;fill-opacity:1;fill-rule:nonzero;stroke:none"
         id="path266"
         transform="translate(282.0664,313.1655)"
         inkscape:label="T" />
      <path
         d="M 0,0 H 20.124 V -5.633 H 6.105 v -7.181 H 19.393 L 19.35,-18.189 H 6.105 v -7.568 H 20.769 V -31.39 H 0 Z"
         style="fill:#86877d;fill-opacity:1;fill-rule:nonzero;stroke:none"
         id="path270"
         transform="translate(310.7051,318.7988)"
         inkscape:label="E" />
      <path
         d="m 0,0 c 2.967,0 5.203,1.892 5.203,4.429 0,2.451 -2.193,4.3 -5.16,4.3 h -5.16 V 0 Z M -11.223,14.104 H 0.86 c 6.321,0 10.836,-4.042 10.836,-9.675 0,-5.719 -4.515,-9.847 -10.836,-9.847 h -5.977 v -11.868 h -6.106 z"
         style="fill:#808178;fill-opacity:1;fill-rule:nonzero;stroke:none"
         id="path274"
         transform="translate(374.5161,304.6948)"
         inkscape:label="P" />
      <path
         d="m 0,0 c 2.967,0 5.16,1.849 5.16,4.386 0,2.494 -2.15,4.3 -5.16,4.3 H -4.773 V 0 Z M -10.879,13.889 H 0.816 c 6.323,0 10.836,-3.87 10.836,-9.374 0,-4.601 -3.181,-8.127 -7.954,-9.159 L 13.33,-17.5 H 5.719 L -3.139,-4.945 H -4.773 V -17.5 h -6.106 z"
         style="fill:#7b7b73;fill-opacity:1;fill-rule:nonzero;stroke:none"
         id="path278"
         transform="translate(409.4316,304.9097)"
         inkscape:label="R" />
      <path
         d="m 0,0 c 5.676,0 10.147,4.601 10.147,10.449 0,5.847 -4.471,10.448 -10.147,10.448 -5.676,0 -10.105,-4.601 -10.105,-10.448 C -10.105,4.601 -5.676,0 0,0 m 0,26.789 c 9.33,0 16.727,-7.225 16.727,-16.34 C 16.727,1.29 9.33,-5.892 0,-5.892 c -9.331,0 -16.684,7.182 -16.684,16.341 0,9.115 7.353,16.34 16.684,16.34"
         style="fill:#75756e;fill-opacity:1;fill-rule:nonzero;stroke:none"
         id="path282"
         transform="translate(449.7656,292.6553)"
         inkscape:label="O" />
      <path
         d="m 0,0 c 1.032,-2.107 2.279,-3.096 3.956,-3.096 2.106,0 3.482,1.548 3.44,3.956 l 0.042,1.849 v 20.339 h 6.107 V 0.387 c 0,-5.762 -3.569,-9.374 -9.202,-9.374 -4.601,0 -8.256,2.365 -9.89,6.45 z"
         style="fill:#6f6f69;fill-opacity:1;fill-rule:nonzero;stroke:none"
         id="path286"
         transform="translate(480.9834,295.751)"
         inkscape:label="J" />
      <path
         d="M 0,0 H 20.123 V -5.633 H 6.105 v -7.181 H 19.393 L 19.35,-18.189 H 6.105 v -7.568 H 20.769 V -31.39 H 0 Z"
         style="fill:#696a63;fill-opacity:1;fill-rule:nonzero;stroke:none"
         id="path290"
         transform="translate(508.0303,318.7988)"
         inkscape:label="E" />
      <path
         d="m 0,0 c -3.269,-3.827 -7.869,-5.935 -12.943,-5.935 -9.417,0 -16.727,7.182 -16.727,16.427 0,9.158 7.267,16.254 16.727,16.254 5.16,0 9.631,-2.107 12.684,-5.892 l -5.03,-3.697 c -1.85,2.322 -4.688,3.697 -7.74,3.697 -5.633,0 -10.062,-4.601 -10.062,-10.405 0,-5.848 4.472,-10.492 10.148,-10.492 3.095,0 5.804,1.376 7.912,4.042 z"
         style="fill:#64645e;fill-opacity:1;fill-rule:nonzero;stroke:none"
         id="path294"
         transform="translate(569.7783,292.6982)"
         inkscape:label="C" />
      <path
         d="M 0,0 H -9.89 V 5.633 H 16.039 V 0 H 6.149 V -25.756 H 0 Z"
         style="fill:#5e5e59;fill-opacity:1;fill-rule:nonzero;stroke:none"
         id="path298"
         transform="translate(590.5049,313.1655)"
         inkscape:label="T" />
    </g>
    <g
       id="g314"
       clip-path="url(#clipPath318)"
       inkscape:label="Slogan">
      <path
         d="m 0,0 h -1.577 l -3.646,13.388 h 1.744 l 2.681,-10.93 h 0.074 l 3.016,10.93 H 3.98 L 6.995,2.458 h 0.074 l 2.681,10.93 h 1.745 L 7.849,0 H 6.271 L 3.182,10.622 H 3.089 Z"
         style="fill:#9d9e92;fill-opacity:1;fill-rule:nonzero;stroke:none"
         id="path310"
         transform="translate(210.2808,255.8086)"
         inkscape:label="W" />
      <path
         d="M 0,0 C 0,-3.293 1.716,-5.371 4.453,-5.371 7.19,-5.371 8.906,-3.293 8.906,0 8.906,3.303 7.19,5.381 4.453,5.381 1.716,5.381 0,3.303 0,0 m 10.623,0 c 0,-4.248 -2.375,-6.911 -6.17,-6.911 -3.794,0 -6.169,2.663 -6.169,6.911 0,4.25 2.375,6.922 6.169,6.922 3.795,0 6.17,-2.672 6.17,-6.922"
         style="fill:#9d9e92;fill-opacity:1;fill-rule:nonzero;stroke:none"
         id="path322"
         transform="translate(255.0044,262.4971)"
         inkscape:label="O" />
      <path
         d="m 0,0 h 3.201 c 1.716,0 2.69,0.928 2.69,2.57 0,1.605 -1.039,2.561 -2.765,2.561 H 0 Z M 0,-6.772 H -1.67 V 6.615 h 5.019 c 2.579,0 4.268,-1.578 4.268,-3.99 0,-1.864 -1.012,-3.312 -2.691,-3.84 L 8.025,-6.772 H 6.067 L 3.201,-1.475 H 0 Z"
         style="fill:#9d9e92;fill-opacity:1;fill-rule:nonzero;stroke:none"
         id="path326"
         transform="translate(300.1553,262.5811)"
         inkscape:label="R" />
      <path
         d="m 0,0 h -8.127 v 13.388 h 1.67 V 1.503 H 0 Z"
         style="fill:#9d9e92;fill-opacity:1;fill-rule:nonzero;stroke:none"
         id="path330"
         transform="translate(348.7754,255.8086)"
         inkscape:label="L" />
      <path
         d="m 0,0 h 2.718 c 3.034,0 4.722,1.855 4.722,5.177 0,3.348 -1.679,5.204 -4.722,5.204 H 0 Z m 2.829,11.885 c 3.971,0 6.318,-2.478 6.318,-6.69 0,-4.22 -2.337,-6.698 -6.318,-6.698 H -1.67 v 13.388 z"
         style="fill:#9d9e92;fill-opacity:1;fill-rule:nonzero;stroke:none"
         id="path334"
         transform="translate(383.0625,257.3115)"
         inkscape:label="D" />
      <path
         d="m 0,0 h -1.577 l -3.646,13.388 h 1.744 l 2.681,-10.93 h 0.074 l 3.015,10.93 H 3.98 L 6.995,2.458 h 0.074 l 2.681,10.93 h 1.744 L 7.849,0 H 6.271 L 3.182,10.622 H 3.09 Z"
         style="fill:#9d9e92;fill-opacity:1;fill-rule:nonzero;stroke:none"
         id="path338"
         transform="translate(428.9365,255.8086)"
         inkscape:label="W" />
      <path
         id="path340"
         style="fill:#9d9e92;fill-opacity:1;fill-rule:nonzero;stroke:none"
         d="M 472.92775,269.19581 V 255.8086 h 1.66992 v 13.38721 z"
         inkscape:label="I" />
      <path
         d="m 0,0 h 2.719 c 3.033,0 4.721,1.855 4.721,5.177 0,3.348 -1.678,5.204 -4.721,5.204 H 0 Z m 2.83,11.885 c 3.971,0 6.317,-2.478 6.317,-6.69 0,-4.22 -2.337,-6.698 -6.317,-6.698 h -4.5 v 13.388 z"
         style="fill:#9d9e92;fill-opacity:1;fill-rule:nonzero;stroke:none"
         id="path344"
         transform="translate(509.6455,257.3115)"
         inkscape:label="D" />
      <path
         d="M 0,0 H -8.294 V 13.388 H 0 V 11.884 H -6.624 V 7.589 h 6.281 V 6.104 H -6.624 V 1.503 H 0 Z"
         style="fill:#9d9e92;fill-opacity:1;fill-rule:nonzero;stroke:none"
         id="path348"
         transform="translate(559.9355,255.8086)"
         inkscape:label="E" />
    </g>
  </g>
</svg>
