<?xml version="1.0" encoding="UTF-8" standalone="no"?>
<!-- Created with Inkscape (http://www.inkscape.org/) -->

<svg
   version="1.1"
   id="svg148"
   width="139.07115"
   height="75.202667"
   viewBox="0 0 139.07115 75.202668"
   sodipodi:docname="logo.svg"
   inkscape:version="1.2.2 (732a01da63, 2022-12-09, custom)"
   xmlns:inkscape="http://www.inkscape.org/namespaces/inkscape"
   xmlns:sodipodi="http://sodipodi.sourceforge.net/DTD/sodipodi-0.dtd"
   xmlns="http://www.w3.org/2000/svg"
   xmlns:svg="http://www.w3.org/2000/svg">
  <defs
     id="defs152" />
  <sodipodi:namedview
     id="namedview150"
     pagecolor="#505050"
     bordercolor="#ffffff"
     borderopacity="1"
     inkscape:showpageshadow="0"
     inkscape:pageopacity="0"
     inkscape:pagecheckerboard="1"
     inkscape:deskcolor="#505050"
     showgrid="false"
     showguides="false"
     inkscape:zoom="0.60488684"
     inkscape:cx="95.885703"
     inkscape:cy="-57.035461"
     inkscape:window-width="1360"
     inkscape:window-height="737"
     inkscape:window-x="0"
     inkscape:window-y="0"
     inkscape:window-maximized="1"
     inkscape:current-layer="g6476" />
  <g
     id="g272"
     inkscape:groupmode="layer"
     inkscape:label="forte-project"
     transform="matrix(1.3333333,0,0,-1.3333333,-422.44336,804.08785)">
    <g
       id="g11652"
       inkscape:label="logo">
      <g
         id="g6220"
         inkscape:export-filename="../18fda3f4/logoname.svg"
         inkscape:export-xdpi="96"
         inkscape:export-ydpi="96"
         inkscape:label="name">
        <g
           id="g6476"
           inkscape:export-filename="../3a0068c6/logoalt.svg"
           inkscape:export-xdpi="96"
           inkscape:export-ydpi="96"
           inkscape:label="FO">
          <path
             d="M 0,0 C -0.075,0 -0.217,-0.015 -0.319,-0.028 -0.421,-0.042 -0.59,-0.076 -0.699,-0.103 -0.807,-0.13 -1.018,-0.21 -1.16,-0.285 -1.309,-0.353 -1.525,-0.483 -1.641,-0.569 -1.764,-0.666 -1.92,-0.808 -1.994,-0.889 -2.068,-0.97 -2.197,-1.141 -2.279,-1.262 -2.359,-1.384 -2.461,-1.575 -2.516,-1.696 -2.563,-1.811 -2.631,-2.002 -2.658,-2.123 -2.686,-2.237 -2.713,-2.469 -2.727,-2.638 L -2.74,-2.949 -2.794,-2.963 c -0.034,-0.007 -0.23,-0.035 -0.44,-0.068 -0.211,-0.028 -0.577,-0.089 -0.815,-0.137 -0.243,-0.04 -0.568,-0.107 -0.731,-0.142 -0.156,-0.033 -0.523,-0.128 -0.814,-0.196 -0.285,-0.075 -0.746,-0.203 -1.01,-0.291 -0.271,-0.083 -0.529,-0.164 -0.57,-0.183 -0.041,-0.014 -0.067,-0.042 -0.067,-0.061 0,-0.021 0.264,-1.959 0.59,-4.313 0.332,-2.345 0.61,-4.393 0.624,-4.549 0.013,-0.163 0.053,-0.373 0.093,-0.502 0.036,-0.121 0.11,-0.305 0.17,-0.413 0.055,-0.102 0.157,-0.259 0.217,-0.345 0.068,-0.082 0.191,-0.212 0.272,-0.287 0.082,-0.072 0.197,-0.175 0.264,-0.215 0.062,-0.048 0.21,-0.13 0.332,-0.184 0.122,-0.061 0.312,-0.135 0.427,-0.163 l 0.211,-0.06 3.959,-0.007 c 2.732,-0.008 4.034,0 4.211,0.02 0.135,0.014 0.346,0.061 0.475,0.103 0.121,0.039 0.284,0.107 0.359,0.147 0.066,0.042 0.195,0.123 0.284,0.184 0.088,0.061 0.217,0.175 0.292,0.257 0.074,0.075 0.183,0.198 0.236,0.273 0.055,0.068 0.137,0.202 0.184,0.298 0.047,0.094 0.115,0.278 0.156,0.392 0.047,0.15 0.081,0.332 0.094,0.555 0.021,0.184 0.271,2.226 0.57,4.545 0.299,2.312 0.535,4.216 0.53,4.229 -0.008,0.021 -0.239,0.103 -0.523,0.196 -0.278,0.089 -0.665,0.205 -0.854,0.259 -0.184,0.054 -0.556,0.15 -0.814,0.21 -0.264,0.061 -0.691,0.157 -0.949,0.203 -0.265,0.054 -0.651,0.122 -0.86,0.149 -0.211,0.035 -0.408,0.061 -0.435,0.068 L 2.813,-2.977 2.799,-2.679 C 2.793,-2.515 2.766,-2.3 2.745,-2.198 2.725,-2.095 2.684,-1.946 2.65,-1.866 2.623,-1.785 2.549,-1.608 2.48,-1.479 2.413,-1.351 2.277,-1.146 2.183,-1.025 2.081,-0.903 1.898,-0.719 1.775,-0.625 1.641,-0.516 1.443,-0.387 1.268,-0.299 1.104,-0.217 0.888,-0.13 0.779,-0.103 0.67,-0.076 0.48,-0.042 0.352,-0.021 0.23,-0.008 0.074,0 0,0 m -9.492,-4.964 c -0.007,0.027 -0.176,-0.047 -0.502,-0.21 -0.264,-0.136 -0.685,-0.367 -0.936,-0.509 -0.244,-0.142 -0.65,-0.385 -0.894,-0.542 -0.251,-0.156 -0.664,-0.441 -0.93,-0.624 -0.257,-0.183 -0.609,-0.446 -0.786,-0.583 -0.177,-0.143 -0.42,-0.339 -0.556,-0.446 -0.129,-0.109 -0.386,-0.341 -0.576,-0.502 -0.189,-0.17 -0.59,-0.55 -0.889,-0.849 -0.297,-0.298 -0.677,-0.697 -0.839,-0.887 -0.17,-0.183 -0.394,-0.448 -0.502,-0.576 -0.116,-0.13 -0.313,-0.38 -0.448,-0.557 -0.136,-0.175 -0.4,-0.527 -0.589,-0.786 -0.184,-0.264 -0.469,-0.679 -0.624,-0.929 -0.157,-0.244 -0.4,-0.651 -0.542,-0.896 -0.143,-0.25 -0.368,-0.662 -0.502,-0.921 -0.129,-0.264 -0.327,-0.665 -0.428,-0.889 -0.102,-0.228 -0.291,-0.669 -0.413,-0.975 -0.122,-0.312 -0.292,-0.76 -0.373,-1.004 -0.081,-0.237 -0.21,-0.65 -0.292,-0.921 -0.074,-0.265 -0.19,-0.685 -0.25,-0.923 -0.055,-0.236 -0.15,-0.665 -0.211,-0.95 -0.054,-0.285 -0.129,-0.704 -0.169,-0.942 -0.034,-0.236 -0.089,-0.67 -0.122,-0.976 -0.028,-0.298 -0.061,-0.576 -0.069,-0.611 l -0.005,-0.053 h -1.174 c -0.684,0 -1.234,-0.015 -1.335,-0.033 -0.095,-0.015 -0.251,-0.063 -0.353,-0.103 -0.101,-0.04 -0.264,-0.135 -0.366,-0.21 -0.095,-0.074 -0.23,-0.21 -0.298,-0.298 -0.068,-0.088 -0.163,-0.238 -0.204,-0.331 -0.04,-0.096 -0.095,-0.266 -0.115,-0.381 -0.027,-0.142 -0.034,-0.285 -0.027,-0.408 0.006,-0.101 0.047,-0.277 0.081,-0.392 0.041,-0.116 0.115,-0.278 0.176,-0.373 0.054,-0.089 0.183,-0.231 0.279,-0.324 0.115,-0.11 0.25,-0.199 0.392,-0.266 0.129,-0.061 0.299,-0.122 0.428,-0.142 0.176,-0.033 3.735,-0.041 24.414,-0.041 20.278,0 24.237,0.008 24.4,0.041 0.109,0.02 0.258,0.06 0.339,0.088 0.075,0.033 0.203,0.096 0.279,0.149 0.074,0.048 0.196,0.149 0.277,0.232 0.074,0.074 0.183,0.216 0.237,0.31 0.062,0.095 0.129,0.258 0.163,0.366 0.055,0.163 0.061,0.258 0.061,0.49 0,0.243 -0.014,0.324 -0.068,0.487 -0.041,0.101 -0.108,0.257 -0.156,0.339 -0.054,0.081 -0.163,0.217 -0.251,0.305 -0.088,0.089 -0.236,0.21 -0.325,0.264 -0.095,0.055 -0.251,0.123 -0.346,0.156 l -0.169,0.054 -1.275,0.014 -1.274,0.007 -0.007,0.061 c -0.007,0.027 -0.033,0.258 -0.061,0.501 -0.02,0.252 -0.068,0.651 -0.109,0.896 -0.033,0.25 -0.102,0.671 -0.155,0.935 -0.048,0.271 -0.164,0.78 -0.245,1.125 -0.088,0.347 -0.223,0.849 -0.305,1.112 -0.074,0.259 -0.197,0.63 -0.264,0.829 -0.068,0.195 -0.225,0.609 -0.346,0.921 -0.129,0.312 -0.339,0.814 -0.474,1.112 -0.136,0.297 -0.366,0.752 -0.502,1.011 -0.136,0.256 -0.353,0.644 -0.475,0.854 -0.129,0.217 -0.346,0.575 -0.495,0.807 -0.149,0.229 -0.399,0.595 -0.556,0.812 -0.156,0.224 -0.42,0.584 -0.589,0.8 -0.17,0.217 -0.455,0.562 -0.631,0.774 -0.183,0.203 -0.494,0.555 -0.705,0.779 -0.21,0.217 -0.529,0.549 -0.711,0.725 -0.191,0.176 -0.502,0.475 -0.705,0.651 -0.198,0.176 -0.537,0.461 -0.754,0.638 -0.217,0.175 -0.563,0.447 -0.773,0.597 -0.21,0.156 -0.535,0.393 -0.725,0.515 -0.19,0.128 -0.502,0.339 -0.698,0.461 -0.197,0.122 -0.529,0.318 -0.74,0.44 -0.209,0.122 -0.576,0.32 -0.812,0.441 L 9.586,-5.004 9.572,-5.092 C 9.566,-5.14 9.342,-6.889 9.07,-8.977 8.807,-11.064 8.576,-12.929 8.556,-13.12 8.542,-13.31 8.502,-13.575 8.475,-13.703 8.447,-13.832 8.387,-14.048 8.346,-14.191 8.298,-14.327 8.196,-14.578 8.121,-14.739 8.04,-14.903 7.912,-15.14 7.83,-15.262 7.748,-15.39 7.613,-15.581 7.531,-15.682 7.45,-15.784 7.295,-15.955 7.186,-16.062 7.07,-16.178 6.881,-16.339 6.759,-16.435 6.637,-16.531 6.434,-16.672 6.312,-16.748 6.189,-16.822 5.992,-16.93 5.871,-16.983 5.756,-17.046 5.531,-17.132 5.389,-17.182 5.24,-17.235 4.976,-17.31 4.799,-17.35 L 4.48,-17.417 0.23,-17.424 c -3.763,-0.014 -4.279,-0.008 -4.536,0.033 -0.163,0.02 -0.399,0.068 -0.542,0.101 -0.136,0.034 -0.345,0.095 -0.461,0.143 -0.123,0.041 -0.326,0.136 -0.461,0.204 -0.142,0.067 -0.345,0.182 -0.468,0.263 -0.121,0.075 -0.278,0.192 -0.36,0.252 -0.074,0.054 -0.25,0.223 -0.392,0.359 -0.143,0.142 -0.346,0.373 -0.455,0.515 -0.108,0.136 -0.244,0.339 -0.305,0.449 -0.061,0.101 -0.156,0.284 -0.21,0.399 -0.054,0.114 -0.136,0.319 -0.177,0.44 -0.047,0.121 -0.115,0.36 -0.148,0.53 -0.041,0.161 -0.082,0.453 -0.096,0.643 -0.014,0.19 -0.264,2.089 -0.562,4.217 -0.298,2.136 -0.542,3.899 -0.549,3.912 M -19.33,-27.54 h -2.272 v -8.224 l -0.067,-0.054 c -0.04,-0.028 -0.894,-0.509 -1.905,-1.072 l -1.823,-1.024 0.047,-0.081 c 0.027,-0.047 1.309,-2.325 2.84,-5.071 1.533,-2.739 2.793,-4.99 2.801,-4.99 0,-0.007 0.752,0.408 1.66,0.916 0.916,0.509 1.689,0.943 1.723,0.962 l 0.055,0.042 1.68,-0.971 c 0.929,-0.535 3.41,-1.974 5.519,-3.186 l 3.831,-2.21 v -3.899 H 6.393 v 4.61 l 3.396,1.959 c 1.871,1.079 4.068,2.354 4.896,2.829 l 1.498,0.86 1.715,-0.963 c 0.95,-0.523 1.722,-0.956 1.729,-0.949 0,0 1.274,2.279 2.834,5.057 1.553,2.78 2.827,5.058 2.834,5.072 0,0.013 -0.841,0.494 -1.871,1.071 l -1.871,1.051 -0.014,4.13 -0.014,4.122 -4.556,0.013 0.013,-0.062 c 0.014,-0.026 0.041,-0.203 0.069,-0.385 0.027,-0.184 0.074,-0.543 0.108,-0.807 0.027,-0.259 0.062,-0.705 0.081,-0.99 0.021,-0.305 0.021,-0.788 0.014,-1.187 -0.007,-0.366 -0.033,-0.875 -0.055,-1.119 -0.019,-0.25 -0.067,-0.63 -0.094,-0.854 -0.027,-0.217 -0.082,-0.562 -0.123,-0.766 -0.033,-0.196 -0.107,-0.543 -0.156,-0.767 -0.054,-0.222 -0.148,-0.595 -0.209,-0.819 -0.061,-0.224 -0.177,-0.59 -0.252,-0.821 -0.074,-0.223 -0.203,-0.569 -0.284,-0.773 -0.075,-0.202 -0.21,-0.522 -0.292,-0.699 -0.074,-0.182 -0.236,-0.52 -0.351,-0.751 -0.116,-0.238 -0.313,-0.604 -0.435,-0.821 -0.129,-0.217 -0.312,-0.528 -0.413,-0.684 -0.102,-0.163 -0.265,-0.408 -0.36,-0.543 -0.095,-0.135 -0.278,-0.392 -0.407,-0.57 -0.129,-0.17 -0.339,-0.44 -0.461,-0.589 -0.122,-0.157 -0.366,-0.434 -0.536,-0.624 -0.169,-0.184 -0.514,-0.55 -0.779,-0.8 -0.258,-0.258 -0.596,-0.576 -0.752,-0.712 -0.163,-0.135 -0.428,-0.352 -0.598,-0.487 -0.176,-0.138 -0.487,-0.381 -0.705,-0.53 -0.217,-0.156 -0.549,-0.38 -0.738,-0.502 -0.19,-0.123 -0.516,-0.319 -0.726,-0.434 -0.203,-0.122 -0.616,-0.34 -0.915,-0.489 -0.304,-0.147 -0.691,-0.331 -0.868,-0.406 -0.183,-0.074 -0.528,-0.21 -0.779,-0.305 -0.251,-0.094 -0.638,-0.224 -0.855,-0.292 -0.216,-0.068 -0.596,-0.175 -0.84,-0.236 -0.244,-0.067 -0.658,-0.157 -0.909,-0.21 -0.258,-0.048 -0.631,-0.116 -0.834,-0.142 -0.204,-0.035 -0.542,-0.075 -0.753,-0.096 -0.21,-0.02 -0.576,-0.053 -0.813,-0.068 -0.243,-0.013 -0.691,-0.027 -1.003,-0.027 -0.313,0 -0.76,0.014 -0.99,0.027 -0.231,0.015 -0.604,0.041 -0.821,0.068 -0.216,0.021 -0.589,0.068 -0.827,0.108 -0.237,0.035 -0.583,0.096 -0.766,0.13 -0.183,0.033 -0.501,0.108 -0.711,0.155 -0.211,0.055 -0.523,0.137 -0.699,0.19 -0.176,0.048 -0.481,0.143 -0.678,0.21 -0.196,0.068 -0.529,0.183 -0.738,0.265 -0.211,0.081 -0.549,0.223 -0.753,0.312 -0.205,0.095 -0.57,0.264 -0.807,0.387 -0.237,0.114 -0.597,0.311 -0.8,0.427 -0.203,0.114 -0.536,0.318 -0.732,0.441 -0.203,0.128 -0.509,0.338 -0.686,0.467 -0.176,0.121 -0.467,0.338 -0.637,0.469 -0.169,0.134 -0.46,0.371 -0.644,0.526 -0.183,0.164 -0.549,0.496 -0.807,0.754 -0.258,0.25 -0.617,0.623 -0.8,0.826 -0.182,0.205 -0.46,0.537 -0.629,0.74 -0.163,0.202 -0.421,0.55 -0.577,0.767 -0.156,0.217 -0.38,0.548 -0.502,0.737 -0.115,0.191 -0.318,0.523 -0.441,0.74 -0.121,0.217 -0.318,0.583 -0.44,0.821 -0.116,0.231 -0.279,0.576 -0.36,0.758 -0.081,0.191 -0.217,0.508 -0.292,0.707 -0.074,0.189 -0.195,0.527 -0.27,0.744 -0.075,0.224 -0.169,0.523 -0.21,0.679 -0.048,0.149 -0.123,0.44 -0.177,0.644 -0.048,0.203 -0.122,0.515 -0.155,0.697 -0.041,0.177 -0.102,0.502 -0.137,0.719 -0.033,0.217 -0.088,0.611 -0.115,0.874 -0.027,0.267 -0.068,0.726 -0.08,1.032 -0.022,0.326 -0.028,0.835 -0.022,1.213 0.014,0.366 0.034,0.86 0.062,1.099 0.02,0.237 0.053,0.522 0.067,0.63 0.014,0.109 0.048,0.359 0.082,0.557 0.028,0.196 0.055,0.378 0.061,0.399 l 0.013,0.048 z"
             style="fill:#97988c;fill-opacity:1;fill-rule:nonzero;stroke:none"
             id="path308"
             transform="translate(395.4209,603.0659)"
             inkscape:label="logomark"
             inkscape:export-filename="../501d11ac/logomark.svg"
             inkscape:export-xdpi="96"
             inkscape:export-ydpi="96" />
          <path
             id="path10979"
             style="font-weight:600;font-size:74.6318px;font-family:'Oceanwide QLt';-inkscape-font-specification:Oceanwide-Semibold;fill:#97988c"
             inkscape:label="F"
             d="M 6.8511279,-54.407211 V 1.693512e-5 H 20.881402 V -23.066878 H 43.292047 V -33.672347 H 20.881402 v -10.129395 h 23.831543 v -10.605469 z"
             transform="matrix(1,0,0,-1,309.9814,547.5952)" />
        </g>
      </g>
    </g>
  </g>
</svg>
