<?xml version="1.0" encoding="UTF-8" standalone="no"?>
<!-- Created with Inkscape (http://www.inkscape.org/) -->

<svg
   version="1.1"
   id="svg581"
   width="116.9415"
   height="128"
   viewBox="0 0 116.9415 128"
   sodipodi:docname="Forte Project Logo.ai"
   xmlns:inkscape="http://www.inkscape.org/namespaces/inkscape"
   xmlns:sodipodi="http://sodipodi.sourceforge.net/DTD/sodipodi-0.dtd"
   xmlns="http://www.w3.org/2000/svg"
   xmlns:svg="http://www.w3.org/2000/svg">
  <defs
     id="defs585">
    <clipPath
       clipPathUnits="userSpaceOnUse"
       id="clipPath691">
      <path
         d="M 0,576 H 768 V 0 H 0 Z"
         id="path689" />
    </clipPath>
  </defs>
  <sodipodi:namedview
     id="namedview583"
     pagecolor="#505050"
     bordercolor="#ffffff"
     borderopacity="1"
     inkscape:showpageshadow="0"
     inkscape:pageopacity="0"
     inkscape:pagecheckerboard="1"
     inkscape:deskcolor="#505050"
     showgrid="false" />
  <g
     id="g589"
     inkscape:groupmode="layer"
     inkscape:label="Page 1"
     transform="matrix(1.3333333,0,0,-1.3333333,-260.47675,425.84958)">
    <g
       id="g685">
      <g
         id="g687"
         clip-path="url(#clipPath691)">
        <g
           id="g733"
           transform="matrix(2.9541189,0,0,2.9541189,239.29252,319.3872)">
          <path
             d="m 0,0 c -0.042,0 -0.125,-0.008 -0.183,-0.016 -0.059,-0.008 -0.156,-0.027 -0.219,-0.043 -0.062,-0.016 -0.183,-0.062 -0.266,-0.105 -0.085,-0.039 -0.21,-0.114 -0.277,-0.164 -0.07,-0.055 -0.16,-0.137 -0.203,-0.184 -0.043,-0.047 -0.117,-0.145 -0.164,-0.215 -0.047,-0.07 -0.106,-0.18 -0.137,-0.25 -0.027,-0.066 -0.066,-0.176 -0.082,-0.246 -0.015,-0.066 -0.031,-0.199 -0.039,-0.297 l -0.008,-0.179 -0.031,-0.008 c -0.019,-0.004 -0.133,-0.02 -0.254,-0.039 -0.121,-0.016 -0.332,-0.051 -0.469,-0.079 -0.14,-0.023 -0.328,-0.062 -0.421,-0.082 -0.09,-0.019 -0.301,-0.074 -0.469,-0.113 -0.164,-0.043 -0.43,-0.117 -0.582,-0.168 -0.156,-0.047 -0.305,-0.094 -0.328,-0.105 -0.024,-0.008 -0.039,-0.024 -0.039,-0.035 0,-0.012 0.152,-1.129 0.339,-2.485 0.192,-1.351 0.352,-2.531 0.36,-2.621 0.008,-0.094 0.031,-0.215 0.054,-0.289 0.02,-0.07 0.063,-0.176 0.098,-0.238 0.031,-0.059 0.09,-0.149 0.125,-0.199 0.039,-0.047 0.11,-0.122 0.156,-0.165 0.047,-0.042 0.114,-0.101 0.153,-0.124 0.035,-0.028 0.121,-0.075 0.191,-0.106 0.07,-0.035 0.18,-0.078 0.246,-0.094 l 0.121,-0.035 2.282,-0.004 c 1.574,-0.004 2.324,0 2.425,0.012 0.079,0.008 0.2,0.035 0.274,0.059 0.07,0.023 0.164,0.062 0.207,0.085 0.039,0.024 0.113,0.071 0.164,0.106 0.051,0.035 0.125,0.101 0.168,0.148 0.043,0.043 0.105,0.114 0.137,0.157 0.031,0.039 0.078,0.117 0.105,0.172 0.027,0.054 0.066,0.16 0.09,0.226 0.027,0.086 0.047,0.191 0.055,0.32 0.011,0.106 0.156,1.282 0.328,2.618 0.172,1.332 0.308,2.429 0.304,2.437 -0.003,0.012 -0.136,0.059 -0.3,0.113 C 3.75,-2.184 3.528,-2.117 3.418,-2.086 3.313,-2.055 3.098,-2 2.95,-1.965 2.797,-1.93 2.551,-1.875 2.403,-1.848 2.25,-1.817 2.028,-1.778 1.907,-1.762 1.786,-1.742 1.672,-1.727 1.657,-1.723 L 1.622,-1.715 1.614,-1.543 C 1.61,-1.449 1.594,-1.325 1.582,-1.266 1.571,-1.207 1.547,-1.121 1.528,-1.075 1.512,-1.028 1.469,-0.926 1.43,-0.852 1.391,-0.778 1.313,-0.66 1.258,-0.59 1.2,-0.52 1.094,-0.414 1.024,-0.36 0.946,-0.297 0.832,-0.223 0.731,-0.172 0.637,-0.125 0.512,-0.075 0.45,-0.059 0.387,-0.043 0.278,-0.024 0.204,-0.012 0.133,-0.004 0.043,0 0,0 M -5.468,-2.86 C -5.472,-2.844 -5.57,-2.887 -5.757,-2.981 -5.91,-3.059 -6.152,-3.192 -6.296,-3.274 -6.437,-3.356 -6.671,-3.496 -6.812,-3.586 -6.957,-3.676 -7.195,-3.84 -7.347,-3.946 -7.496,-4.051 -7.699,-4.203 -7.8,-4.282 -7.902,-4.364 -8.042,-4.477 -8.121,-4.539 -8.195,-4.602 -8.343,-4.735 -8.453,-4.828 -8.562,-4.926 -8.792,-5.145 -8.964,-5.317 -9.136,-5.489 -9.355,-5.719 -9.449,-5.828 -9.546,-5.934 -9.675,-6.086 -9.738,-6.16 c -0.066,-0.075 -0.18,-0.219 -0.258,-0.321 -0.078,-0.101 -0.23,-0.304 -0.339,-0.453 -0.106,-0.152 -0.27,-0.391 -0.36,-0.535 -0.09,-0.141 -0.23,-0.375 -0.312,-0.516 -0.082,-0.144 -0.211,-0.382 -0.289,-0.531 -0.075,-0.152 -0.188,-0.383 -0.246,-0.512 -0.059,-0.132 -0.168,-0.386 -0.239,-0.562 -0.07,-0.18 -0.168,-0.438 -0.215,-0.578 -0.046,-0.137 -0.121,-0.375 -0.168,-0.531 -0.043,-0.153 -0.109,-0.395 -0.144,-0.532 -0.031,-0.136 -0.086,-0.383 -0.121,-0.547 -0.031,-0.164 -0.074,-0.406 -0.098,-0.543 -0.019,-0.136 -0.051,-0.386 -0.07,-0.562 -0.016,-0.172 -0.035,-0.332 -0.039,-0.352 l -0.004,-0.031 h -0.676 c -0.394,0 -0.711,-0.008 -0.769,-0.019 -0.055,-0.008 -0.145,-0.036 -0.204,-0.059 -0.058,-0.023 -0.152,-0.078 -0.211,-0.121 -0.054,-0.043 -0.132,-0.121 -0.171,-0.172 -0.039,-0.051 -0.094,-0.137 -0.118,-0.191 -0.023,-0.055 -0.054,-0.153 -0.066,-0.219 -0.016,-0.082 -0.02,-0.164 -0.016,-0.235 0.004,-0.058 0.028,-0.16 0.047,-0.226 0.024,-0.067 0.067,-0.16 0.102,-0.215 0.031,-0.051 0.105,-0.133 0.16,-0.187 0.066,-0.063 0.144,-0.114 0.227,-0.153 0.074,-0.035 0.171,-0.07 0.246,-0.082 0.101,-0.019 2.152,-0.023 14.066,-0.023 11.684,0 13.965,0.004 14.059,0.023 0.062,0.012 0.148,0.035 0.195,0.051 0.043,0.019 0.117,0.055 0.16,0.086 0.043,0.027 0.113,0.086 0.16,0.133 0.043,0.043 0.106,0.125 0.137,0.179 0.035,0.055 0.074,0.149 0.094,0.211 0.031,0.094 0.035,0.149 0.035,0.282 0,0.14 -0.008,0.187 -0.039,0.281 -0.024,0.058 -0.063,0.148 -0.09,0.195 -0.031,0.047 -0.094,0.125 -0.145,0.176 -0.05,0.051 -0.136,0.121 -0.187,0.152 -0.055,0.032 -0.145,0.071 -0.199,0.09 l -0.098,0.031 -0.734,0.008 -0.735,0.004 -0.004,0.035 c -0.004,0.016 -0.019,0.149 -0.035,0.289 -0.011,0.145 -0.039,0.375 -0.062,0.516 -0.02,0.144 -0.059,0.387 -0.09,0.539 -0.027,0.156 -0.094,0.449 -0.141,0.648 -0.05,0.2 -0.129,0.489 -0.176,0.641 -0.042,0.149 -0.113,0.363 -0.152,0.477 -0.039,0.113 -0.129,0.351 -0.199,0.531 -0.074,0.18 -0.195,0.469 -0.273,0.641 -0.079,0.171 -0.211,0.433 -0.29,0.582 -0.078,0.148 -0.203,0.371 -0.273,0.492 -0.074,0.125 -0.199,0.332 -0.285,0.465 -0.086,0.132 -0.231,0.343 -0.32,0.468 -0.09,0.129 -0.243,0.336 -0.34,0.461 C 9.852,-6.356 9.688,-6.157 9.586,-6.035 9.481,-5.918 9.301,-5.715 9.18,-5.586 9.059,-5.461 8.875,-5.27 8.77,-5.168 8.661,-5.067 8.481,-4.895 8.364,-4.793 8.25,-4.692 8.055,-4.528 7.93,-4.426 7.805,-4.325 7.606,-4.168 7.485,-4.082 7.364,-3.992 7.176,-3.856 7.067,-3.785 6.958,-3.711 6.778,-3.59 6.665,-3.52 6.551,-3.449 6.36,-3.336 6.239,-3.266 6.118,-3.196 5.907,-3.082 5.77,-3.012 L 5.524,-2.883 5.516,-2.934 C 5.512,-2.961 5.383,-3.969 5.227,-5.172 5.075,-6.375 4.942,-7.449 4.93,-7.559 4.922,-7.668 4.899,-7.821 4.883,-7.895 4.868,-7.969 4.832,-8.094 4.809,-8.176 4.782,-8.254 4.723,-8.399 4.68,-8.492 4.633,-8.586 4.559,-8.723 4.512,-8.793 4.465,-8.867 4.387,-8.977 4.34,-9.035 4.293,-9.094 4.204,-9.192 4.141,-9.254 4.075,-9.321 3.965,-9.414 3.895,-9.469 3.825,-9.524 3.708,-9.606 3.637,-9.649 3.567,-9.692 3.454,-9.754 3.383,-9.785 3.317,-9.821 3.188,-9.871 3.106,-9.899 3.02,-9.93 2.868,-9.973 2.766,-9.996 l -0.184,-0.039 -2.449,-0.004 c -2.168,-0.008 -2.465,-0.004 -2.613,0.019 -0.094,0.012 -0.23,0.039 -0.312,0.059 -0.079,0.019 -0.2,0.054 -0.266,0.082 -0.07,0.023 -0.188,0.078 -0.266,0.117 -0.082,0.039 -0.199,0.105 -0.269,0.152 -0.071,0.043 -0.16,0.11 -0.207,0.145 -0.043,0.031 -0.145,0.129 -0.227,0.207 -0.082,0.082 -0.199,0.215 -0.262,0.297 -0.062,0.078 -0.14,0.195 -0.175,0.258 -0.036,0.058 -0.09,0.164 -0.121,0.23 -0.032,0.066 -0.079,0.184 -0.102,0.254 -0.027,0.07 -0.066,0.207 -0.086,0.305 -0.023,0.093 -0.047,0.261 -0.055,0.371 -0.007,0.109 -0.152,1.203 -0.324,2.429 -0.172,1.231 -0.312,2.247 -0.316,2.254 m -5.668,-13.007 h -1.309 v -4.739 l -0.039,-0.031 c -0.023,-0.016 -0.516,-0.293 -1.098,-0.617 l -1.05,-0.59 0.027,-0.047 c 0.016,-0.027 0.754,-1.34 1.637,-2.922 0.883,-1.578 1.609,-2.875 1.613,-2.875 0,-0.004 0.434,0.235 0.957,0.528 0.527,0.293 0.973,0.543 0.992,0.554 l 0.031,0.024 0.969,-0.559 c 0.535,-0.308 1.965,-1.137 3.18,-1.836 l 2.207,-1.273 v -2.247 h 6.703 v 2.657 l 1.957,1.129 c 1.078,0.621 2.344,1.355 2.82,1.629 l 0.864,0.496 0.988,-0.555 c 0.547,-0.301 0.992,-0.551 0.996,-0.547 0,0 0.734,1.313 1.633,2.914 0.894,1.602 1.629,2.914 1.633,2.922 0,0.008 -0.485,0.285 -1.078,0.617 l -1.079,0.606 -0.007,2.379 -0.008,2.375 -2.625,0.008 0.008,-0.036 c 0.007,-0.015 0.023,-0.117 0.039,-0.222 0.015,-0.106 0.043,-0.313 0.062,-0.465 0.016,-0.149 0.035,-0.406 0.047,-0.57 0.012,-0.176 0.012,-0.454 0.008,-0.684 -0.004,-0.211 -0.02,-0.504 -0.031,-0.645 -0.012,-0.144 -0.039,-0.363 -0.055,-0.492 -0.016,-0.125 -0.047,-0.324 -0.07,-0.441 -0.02,-0.113 -0.063,-0.313 -0.09,-0.442 -0.031,-0.128 -0.086,-0.343 -0.121,-0.472 -0.035,-0.129 -0.102,-0.34 -0.145,-0.473 -0.043,-0.129 -0.117,-0.328 -0.164,-0.445 -0.043,-0.117 -0.121,-0.301 -0.168,-0.403 -0.043,-0.105 -0.137,-0.3 -0.203,-0.433 -0.066,-0.137 -0.18,-0.348 -0.25,-0.473 -0.074,-0.125 -0.18,-0.304 -0.238,-0.394 C 8.348,-23.051 8.254,-23.192 8.2,-23.27 8.145,-23.348 8.04,-23.496 7.965,-23.598 7.891,-23.696 7.77,-23.852 7.7,-23.938 c -0.071,-0.09 -0.211,-0.25 -0.309,-0.359 -0.098,-0.106 -0.297,-0.317 -0.449,-0.461 -0.149,-0.149 -0.344,-0.332 -0.434,-0.41 -0.093,-0.078 -0.246,-0.203 -0.343,-0.281 -0.102,-0.079 -0.282,-0.219 -0.407,-0.305 -0.125,-0.09 -0.316,-0.219 -0.426,-0.289 -0.109,-0.071 -0.296,-0.184 -0.417,-0.25 -0.118,-0.071 -0.356,-0.196 -0.528,-0.282 -0.176,-0.085 -0.398,-0.191 -0.5,-0.234 -0.105,-0.043 -0.305,-0.121 -0.449,-0.176 -0.145,-0.054 -0.367,-0.129 -0.492,-0.168 -0.125,-0.039 -0.344,-0.101 -0.485,-0.136 -0.14,-0.039 -0.379,-0.09 -0.523,-0.121 -0.148,-0.028 -0.363,-0.067 -0.48,-0.082 -0.118,-0.02 -0.313,-0.043 -0.434,-0.055 -0.121,-0.012 -0.332,-0.031 -0.469,-0.039 -0.14,-0.008 -0.398,-0.016 -0.578,-0.016 -0.18,0 -0.437,0.008 -0.57,0.016 -0.133,0.008 -0.348,0.023 -0.473,0.039 -0.125,0.012 -0.34,0.039 -0.476,0.062 -0.137,0.02 -0.336,0.055 -0.442,0.075 -0.105,0.019 -0.289,0.062 -0.41,0.089 -0.121,0.032 -0.301,0.079 -0.402,0.11 -0.102,0.027 -0.278,0.082 -0.391,0.121 -0.113,0.039 -0.305,0.105 -0.426,0.152 -0.121,0.047 -0.316,0.129 -0.433,0.18 -0.118,0.055 -0.329,0.152 -0.465,0.223 -0.137,0.066 -0.344,0.179 -0.461,0.246 -0.117,0.066 -0.309,0.183 -0.422,0.254 -0.117,0.074 -0.293,0.195 -0.395,0.269 -0.101,0.07 -0.269,0.195 -0.367,0.27 -0.097,0.078 -0.265,0.214 -0.371,0.304 -0.105,0.094 -0.316,0.285 -0.465,0.434 -0.148,0.144 -0.355,0.359 -0.461,0.476 -0.105,0.118 -0.265,0.309 -0.363,0.426 -0.094,0.117 -0.242,0.317 -0.332,0.442 -0.09,0.125 -0.219,0.316 -0.289,0.425 -0.066,0.11 -0.184,0.301 -0.254,0.426 -0.07,0.125 -0.184,0.336 -0.254,0.473 -0.066,0.133 -0.16,0.332 -0.207,0.437 -0.047,0.11 -0.125,0.293 -0.168,0.407 -0.043,0.109 -0.113,0.304 -0.156,0.429 -0.043,0.129 -0.098,0.301 -0.121,0.391 -0.028,0.086 -0.071,0.254 -0.102,0.371 -0.027,0.117 -0.07,0.297 -0.09,0.402 -0.023,0.102 -0.058,0.289 -0.078,0.414 -0.019,0.125 -0.051,0.352 -0.066,0.504 -0.016,0.153 -0.039,0.418 -0.047,0.594 -0.012,0.188 -0.016,0.481 -0.012,0.699 0.008,0.211 0.02,0.496 0.035,0.633 0.012,0.137 0.032,0.301 0.039,0.363 0.008,0.063 0.028,0.207 0.047,0.321 0.016,0.113 0.032,0.218 0.036,0.23 l 0.007,0.028 z"
             style="fill:#97988c;fill-opacity:1;fill-rule:nonzero;stroke:none"
             id="path735" />
        </g>
      </g>
    </g>
  </g>
</svg>
