<?xml version="1.0" encoding="UTF-8" standalone="no"?>
<!-- Created with Inkscape (http://www.inkscape.org/) -->

<svg
   version="1.1"
   id="svg148"
   width="1028.2915"
   height="147.75403"
   viewBox="0 0 1028.2915 147.75403"
   sodipodi:docname="logo.svg"
   inkscape:version="1.2.2 (732a01da63, 2022-12-09, custom)"
   xmlns:inkscape="http://www.inkscape.org/namespaces/inkscape"
   xmlns:sodipodi="http://sodipodi.sourceforge.net/DTD/sodipodi-0.dtd"
   xmlns="http://www.w3.org/2000/svg"
   xmlns:svg="http://www.w3.org/2000/svg">
  <defs
     id="defs152">
    <clipPath
       clipPathUnits="userSpaceOnUse"
       id="clipPath304">
      <path
         d="M 0,1080 H 1413.021 V 0 H 0 Z"
         id="path302" />
    </clipPath>
  </defs>
  <sodipodi:namedview
     id="namedview150"
     pagecolor="#505050"
     bordercolor="#ffffff"
     borderopacity="1"
     inkscape:showpageshadow="0"
     inkscape:pageopacity="0"
     inkscape:pagecheckerboard="1"
     inkscape:deskcolor="#505050"
     showgrid="false"
     showguides="false"
     inkscape:zoom="0.60488684"
     inkscape:cx="95.885703"
     inkscape:cy="-57.035461"
     inkscape:window-width="1360"
     inkscape:window-height="737"
     inkscape:window-x="0"
     inkscape:window-y="0"
     inkscape:window-maximized="1"
     inkscape:current-layer="g6476" />
  <g
     id="g272"
     inkscape:groupmode="layer"
     inkscape:label="forte-project"
     transform="matrix(1.3333333,0,0,-1.3333333,-422.44336,804.08783)">
    <g
       id="g11652"
       inkscape:label="logo">
      <g
         id="g6220"
         inkscape:export-filename="../18fda3f4/logoname.svg"
         inkscape:export-xdpi="96"
         inkscape:export-ydpi="96"
         inkscape:label="name">
        <g
           aria-label="RTE PROJECT"
           transform="matrix(1,0,0,-1,443.1758,547.564)"
           id="text296"
           style="font-weight:600;font-size:74.6318px;font-family:'Oceanwide QLt';-inkscape-font-specification:Oceanwide-Semibold;fill:#5e5e59"
           inkscape:label="RTE PROJECT">
          <path
             id="path11734"
             inkscape:label="R"
             d="M 6.8505789 -54.406184 L 6.8505789 -0.00042134536 L 20.880853 -0.00042134536 L 20.880853 -20.588801 L 24.853509 -20.588801 C 27.137162 -20.588801 28.958367 -20.090722 30.318841 -19.09466 C 31.703609 -18.098599 33.063716 -16.240413 34.399896 -13.519465 L 41.032709 -0.00042134536 L 55.974115 -0.00042134536 L 48.356928 -15.451594 C 46.8021 -18.585543 45.260019 -20.917154 43.729486 -22.447688 C 42.223247 -24.002515 40.510054 -24.998673 38.590814 -25.435969 C 42.089176 -26.529206 44.701377 -28.230072 46.426263 -30.53802 C 48.175444 -32.845967 49.049799 -35.797462 49.049799 -39.393 C 49.049799 -44.591955 47.373587 -48.394615 44.02099 -50.799739 C 40.692687 -53.204863 35.445097 -54.406184 28.278314 -54.406184 L 6.8505789 -54.406184 z M 20.880853 -44.240169 L 26.784173 -44.240169 C 29.723769 -44.240169 31.825563 -43.705108 33.088861 -42.636165 C 34.376453 -41.56722 35.019525 -39.793858 35.019525 -37.315852 C 35.019525 -34.813551 34.376453 -33.015535 33.088861 -31.922297 C 31.825563 -30.82906 29.723769 -30.283137 26.784173 -30.283137 L 20.880853 -30.283137 L 20.880853 -44.240169 z " />
          <path
             id="path11731"
             inkscape:label="T"
             d="M 59.397455 -54.406184 L 59.397455 -43.80218 L 77.473628 -43.80218 L 77.473628 -0.00042134536 L 91.502436 -0.00042134536 L 91.502436 -43.80218 L 109.54199 -43.80218 L 109.54199 -54.406184 L 59.397455 -54.406184 z " />
          <path
             id="path11728"
             inkscape:label="E"
             d="M 131.03857 -54.406184 L 131.03857 -0.00042134536 L 169.70312 -0.00042134536 L 169.70312 -10.604426 L 145.06884 -10.604426 L 145.06884 -23.067316 L 167.47949 -23.067316 L 167.47949 -33.671321 L 145.06884 -33.671321 L 145.06884 -43.80218 L 168.90039 -43.80218 L 168.90039 -54.406184 L 131.03857 -54.406184 z " />
          <path
             id="path11725"
             inkscape:label="P"
             d="M 222.38769 -54.406184 L 222.38769 -0.00042134536 L 236.41797 -0.00042134536 L 236.41797 -18.876398 L 245.67432 -18.876398 C 252.59816 -18.876398 257.90592 -20.407617 261.59863 -23.468684 C 265.31564 -26.554045 267.17383 -30.95047 267.17383 -36.659602 C 267.17383 -42.34444 265.31564 -46.717676 261.59863 -49.778743 C 257.90592 -52.864104 252.59816 -54.406184 245.67432 -54.406184 L 222.38769 -54.406184 z M 236.41797 -44.240169 L 244.18017 -44.240169 C 246.90113 -44.240169 249.00145 -43.583304 250.4834 -42.271418 C 251.96534 -40.959532 252.70703 -39.08902 252.70703 -36.659602 C 252.70703 -34.230184 251.96534 -32.347344 250.4834 -31.011164 C 249.00145 -29.699278 246.90113 -29.043879 244.18017 -29.043879 L 236.41797 -29.043879 L 236.41797 -44.240169 z " />
          <path
             id="path11722"
             inkscape:label="R"
             d="M 283.58594 -54.406184 L 283.58594 -0.00042134536 L 297.61621 -0.00042134536 L 297.61621 -20.588801 L 301.5874 -20.588801 C 303.87106 -20.588801 305.69373 -20.090722 307.0542 -19.09466 C 308.43896 -18.098599 309.79908 -16.240413 311.13525 -13.519465 L 317.76807 -0.00042134536 L 332.70801 -0.00042134536 L 325.09229 -15.451594 C 323.53745 -18.585543 321.99538 -20.917154 320.46484 -22.447688 C 318.95861 -24.002515 317.24541 -24.998673 315.32617 -25.435969 C 318.82453 -26.529206 321.43673 -28.230072 323.16162 -30.53802 C 324.9108 -32.845967 325.78516 -35.797462 325.78516 -39.393 C 325.78516 -44.591955 324.10895 -48.394615 320.75635 -50.799739 C 317.42805 -53.204863 312.18045 -54.406184 305.01367 -54.406184 L 283.58594 -54.406184 z M 297.61621 -44.240169 L 303.51953 -44.240169 C 306.45913 -44.240169 308.55946 -43.705108 309.82275 -42.636165 C 311.11035 -41.56722 311.75488 -39.793858 311.75488 -37.315852 C 311.75488 -34.813551 311.11035 -33.015535 309.82275 -31.922297 C 308.55946 -30.82906 306.45913 -30.283137 303.51953 -30.283137 L 297.61621 -30.283137 L 297.61621 -44.240169 z " />
          <path
             id="path11719"
             inkscape:label="O"
             d="M 369.86084 -55.390559 C 361.13924 -55.390559 354.28793 -52.887836 349.30762 -47.883235 C 344.3516 -42.878634 341.87354 -35.967159 341.87354 -27.148371 C 341.87354 -18.353878 344.3516 -11.45473 349.30762 -6.4501285 C 354.28793 -1.4455273 361.13924 1.0571959 369.86084 1.0571959 C 378.60675 1.0571959 385.45806 -1.4455273 390.41407 -6.4501285 C 395.37008 -11.45473 397.84815 -18.353878 397.84815 -27.148371 C 397.84815 -35.967159 395.37008 -42.878634 390.41407 -47.883235 C 385.45806 -52.887836 378.60675 -55.390559 369.86084 -55.390559 z M 369.86084 -45.223079 C 374.16092 -45.223079 377.48869 -43.644017 379.84522 -40.485774 C 382.20175 -37.32753 383.37989 -32.881798 383.37989 -27.148371 C 383.37989 -21.439239 382.20175 -17.005833 379.84522 -13.84759 C 377.48869 -10.689346 374.16092 -9.1102849 369.86084 -9.1102849 C 365.58507 -9.1102849 362.26815 -10.689346 359.91162 -13.84759 C 357.55509 -17.005833 356.37695 -21.439239 356.37695 -27.148371 C 356.37695 -32.881798 357.55509 -37.32753 359.91162 -40.485774 C 362.26815 -43.644017 365.58507 -45.223079 369.86084 -45.223079 z " />
          <path
             id="path11716"
             inkscape:label="J"
             d="M 421.13184 -54.406184 L 421.13184 -5.2841129 C 421.13184 -2.1258694 420.37929 0.2673764 418.87305 1.8950865 C 417.3911 3.5227966 415.19216 4.3369811 412.27686 4.3369811 L 410.08985 4.3369811 L 410.08985 14.940985 L 412.93311 14.940985 C 420.39142 14.940985 425.95512 13.264773 429.62354 9.9121766 C 433.31626 6.5595796 435.16211 1.4939635 435.16211 -5.2841129 L 435.16211 -54.406184 L 421.13184 -54.406184 z " />
          <path
             id="path11713"
             inkscape:label="E"
             d="M 473.52344 -54.406184 L 473.52344 -0.00042134536 L 512.18799 -0.00042134536 L 512.18799 -10.604426 L 487.55372 -10.604426 L 487.55372 -23.067316 L 509.96436 -23.067316 L 509.96436 -33.671321 L 487.55372 -33.671321 L 487.55372 -43.80218 L 511.38672 -43.80218 L 511.38672 -54.406184 L 473.52344 -54.406184 z " />
          <path
             id="path11710"
             inkscape:label="C"
             d="M 557.11329 -55.390559 C 548.05156 -55.390559 540.87329 -52.85232 535.57715 -47.774837 C 530.28103 -42.721647 527.63184 -35.845688 527.63184 -27.148371 C 527.63184 -18.475349 530.28103 -11.600854 535.57715 -6.5233707 C 540.87329 -1.4701812 548.05156 1.0571959 557.11329 1.0571959 C 560.15006 1.0571959 563.06604 0.7164368 565.85987 0.036199749 C 568.6537 -0.64403731 571.33693 -1.6525227 573.91212 -2.9887027 L 573.91212 -14.248957 C 571.31264 -12.475482 568.74975 -11.175545 566.22315 -10.349543 C 563.69655 -9.5235408 561.03651 -9.1102849 558.24268 -9.1102849 C 553.23808 -9.1102849 549.30275 -10.714 546.43604 -13.920832 C 543.56933 -17.127664 542.13526 -21.536416 542.13526 -27.148371 C 542.13526 -32.784621 543.56933 -37.207164 546.43604 -40.413997 C 549.30275 -43.620829 553.23808 -45.223079 558.24268 -45.223079 C 561.03651 -45.223079 563.69655 -44.811288 566.22315 -43.985286 C 568.74975 -43.159284 571.31264 -41.859347 573.91212 -40.085872 L 573.91212 -51.346126 C 571.33693 -52.682306 568.6537 -53.690791 565.85987 -54.371028 C 563.06604 -55.051265 560.15006 -55.390559 557.11329 -55.390559 z " />
          <path
             id="path11739"
             inkscape:label="T"
             d="M 594.73194 -54.406184 L 594.73194 -43.80218 L 612.80665 -43.80218 L 612.80665 -0.00042134536 L 626.83692 -0.00042134536 L 626.83692 -43.80218 L 644.87501 -43.80218 L 644.87501 -54.406184 L 594.73194 -54.406184 z " />
        </g>
        <g
           id="g6476"
           inkscape:export-filename="../3a0068c6/logoalt.svg"
           inkscape:export-xdpi="96"
           inkscape:export-ydpi="96"
           inkscape:label="FO">
          <path
             d="M 0,0 C -0.075,0 -0.217,-0.015 -0.319,-0.028 -0.421,-0.042 -0.59,-0.076 -0.699,-0.103 -0.807,-0.13 -1.018,-0.21 -1.16,-0.285 -1.309,-0.353 -1.525,-0.483 -1.641,-0.569 -1.764,-0.666 -1.92,-0.808 -1.994,-0.889 -2.068,-0.97 -2.197,-1.141 -2.279,-1.262 -2.359,-1.384 -2.461,-1.575 -2.516,-1.696 -2.563,-1.811 -2.631,-2.002 -2.658,-2.123 -2.686,-2.237 -2.713,-2.469 -2.727,-2.638 L -2.74,-2.949 -2.794,-2.963 c -0.034,-0.007 -0.23,-0.035 -0.44,-0.068 -0.211,-0.028 -0.577,-0.089 -0.815,-0.137 -0.243,-0.04 -0.568,-0.107 -0.731,-0.142 -0.156,-0.033 -0.523,-0.128 -0.814,-0.196 -0.285,-0.075 -0.746,-0.203 -1.01,-0.291 -0.271,-0.083 -0.529,-0.164 -0.57,-0.183 -0.041,-0.014 -0.067,-0.042 -0.067,-0.061 0,-0.021 0.264,-1.959 0.59,-4.313 0.332,-2.345 0.61,-4.393 0.624,-4.549 0.013,-0.163 0.053,-0.373 0.093,-0.502 0.036,-0.121 0.11,-0.305 0.17,-0.413 0.055,-0.102 0.157,-0.259 0.217,-0.345 0.068,-0.082 0.191,-0.212 0.272,-0.287 0.082,-0.072 0.197,-0.175 0.264,-0.215 0.062,-0.048 0.21,-0.13 0.332,-0.184 0.122,-0.061 0.312,-0.135 0.427,-0.163 l 0.211,-0.06 3.959,-0.007 c 2.732,-0.008 4.034,0 4.211,0.02 0.135,0.014 0.346,0.061 0.475,0.103 0.121,0.039 0.284,0.107 0.359,0.147 0.066,0.042 0.195,0.123 0.284,0.184 0.088,0.061 0.217,0.175 0.292,0.257 0.074,0.075 0.183,0.198 0.236,0.273 0.055,0.068 0.137,0.202 0.184,0.298 0.047,0.094 0.115,0.278 0.156,0.392 0.047,0.15 0.081,0.332 0.094,0.555 0.021,0.184 0.271,2.226 0.57,4.545 0.299,2.312 0.535,4.216 0.53,4.229 -0.008,0.021 -0.239,0.103 -0.523,0.196 -0.278,0.089 -0.665,0.205 -0.854,0.259 -0.184,0.054 -0.556,0.15 -0.814,0.21 -0.264,0.061 -0.691,0.157 -0.949,0.203 -0.265,0.054 -0.651,0.122 -0.86,0.149 -0.211,0.035 -0.408,0.061 -0.435,0.068 L 2.813,-2.977 2.799,-2.679 C 2.793,-2.515 2.766,-2.3 2.745,-2.198 2.725,-2.095 2.684,-1.946 2.65,-1.866 2.623,-1.785 2.549,-1.608 2.48,-1.479 2.413,-1.351 2.277,-1.146 2.183,-1.025 2.081,-0.903 1.898,-0.719 1.775,-0.625 1.641,-0.516 1.443,-0.387 1.268,-0.299 1.104,-0.217 0.888,-0.13 0.779,-0.103 0.67,-0.076 0.48,-0.042 0.352,-0.021 0.23,-0.008 0.074,0 0,0 m -9.492,-4.964 c -0.007,0.027 -0.176,-0.047 -0.502,-0.21 -0.264,-0.136 -0.685,-0.367 -0.936,-0.509 -0.244,-0.142 -0.65,-0.385 -0.894,-0.542 -0.251,-0.156 -0.664,-0.441 -0.93,-0.624 -0.257,-0.183 -0.609,-0.446 -0.786,-0.583 -0.177,-0.143 -0.42,-0.339 -0.556,-0.446 -0.129,-0.109 -0.386,-0.341 -0.576,-0.502 -0.189,-0.17 -0.59,-0.55 -0.889,-0.849 -0.297,-0.298 -0.677,-0.697 -0.839,-0.887 -0.17,-0.183 -0.394,-0.448 -0.502,-0.576 -0.116,-0.13 -0.313,-0.38 -0.448,-0.557 -0.136,-0.175 -0.4,-0.527 -0.589,-0.786 -0.184,-0.264 -0.469,-0.679 -0.624,-0.929 -0.157,-0.244 -0.4,-0.651 -0.542,-0.896 -0.143,-0.25 -0.368,-0.662 -0.502,-0.921 -0.129,-0.264 -0.327,-0.665 -0.428,-0.889 -0.102,-0.228 -0.291,-0.669 -0.413,-0.975 -0.122,-0.312 -0.292,-0.76 -0.373,-1.004 -0.081,-0.237 -0.21,-0.65 -0.292,-0.921 -0.074,-0.265 -0.19,-0.685 -0.25,-0.923 -0.055,-0.236 -0.15,-0.665 -0.211,-0.95 -0.054,-0.285 -0.129,-0.704 -0.169,-0.942 -0.034,-0.236 -0.089,-0.67 -0.122,-0.976 -0.028,-0.298 -0.061,-0.576 -0.069,-0.611 l -0.005,-0.053 h -1.174 c -0.684,0 -1.234,-0.015 -1.335,-0.033 -0.095,-0.015 -0.251,-0.063 -0.353,-0.103 -0.101,-0.04 -0.264,-0.135 -0.366,-0.21 -0.095,-0.074 -0.23,-0.21 -0.298,-0.298 -0.068,-0.088 -0.163,-0.238 -0.204,-0.331 -0.04,-0.096 -0.095,-0.266 -0.115,-0.381 -0.027,-0.142 -0.034,-0.285 -0.027,-0.408 0.006,-0.101 0.047,-0.277 0.081,-0.392 0.041,-0.116 0.115,-0.278 0.176,-0.373 0.054,-0.089 0.183,-0.231 0.279,-0.324 0.115,-0.11 0.25,-0.199 0.392,-0.266 0.129,-0.061 0.299,-0.122 0.428,-0.142 0.176,-0.033 3.735,-0.041 24.414,-0.041 20.278,0 24.237,0.008 24.4,0.041 0.109,0.02 0.258,0.06 0.339,0.088 0.075,0.033 0.203,0.096 0.279,0.149 0.074,0.048 0.196,0.149 0.277,0.232 0.074,0.074 0.183,0.216 0.237,0.31 0.062,0.095 0.129,0.258 0.163,0.366 0.055,0.163 0.061,0.258 0.061,0.49 0,0.243 -0.014,0.324 -0.068,0.487 -0.041,0.101 -0.108,0.257 -0.156,0.339 -0.054,0.081 -0.163,0.217 -0.251,0.305 -0.088,0.089 -0.236,0.21 -0.325,0.264 -0.095,0.055 -0.251,0.123 -0.346,0.156 l -0.169,0.054 -1.275,0.014 -1.274,0.007 -0.007,0.061 c -0.007,0.027 -0.033,0.258 -0.061,0.501 -0.02,0.252 -0.068,0.651 -0.109,0.896 -0.033,0.25 -0.102,0.671 -0.155,0.935 -0.048,0.271 -0.164,0.78 -0.245,1.125 -0.088,0.347 -0.223,0.849 -0.305,1.112 -0.074,0.259 -0.197,0.63 -0.264,0.829 -0.068,0.195 -0.225,0.609 -0.346,0.921 -0.129,0.312 -0.339,0.814 -0.474,1.112 -0.136,0.297 -0.366,0.752 -0.502,1.011 -0.136,0.256 -0.353,0.644 -0.475,0.854 -0.129,0.217 -0.346,0.575 -0.495,0.807 -0.149,0.229 -0.399,0.595 -0.556,0.812 -0.156,0.224 -0.42,0.584 -0.589,0.8 -0.17,0.217 -0.455,0.562 -0.631,0.774 -0.183,0.203 -0.494,0.555 -0.705,0.779 -0.21,0.217 -0.529,0.549 -0.711,0.725 -0.191,0.176 -0.502,0.475 -0.705,0.651 -0.198,0.176 -0.537,0.461 -0.754,0.638 -0.217,0.175 -0.563,0.447 -0.773,0.597 -0.21,0.156 -0.535,0.393 -0.725,0.515 -0.19,0.128 -0.502,0.339 -0.698,0.461 -0.197,0.122 -0.529,0.318 -0.74,0.44 -0.209,0.122 -0.576,0.32 -0.812,0.441 L 9.586,-5.004 9.572,-5.092 C 9.566,-5.14 9.342,-6.889 9.07,-8.977 8.807,-11.064 8.576,-12.929 8.556,-13.12 8.542,-13.31 8.502,-13.575 8.475,-13.703 8.447,-13.832 8.387,-14.048 8.346,-14.191 8.298,-14.327 8.196,-14.578 8.121,-14.739 8.04,-14.903 7.912,-15.14 7.83,-15.262 7.748,-15.39 7.613,-15.581 7.531,-15.682 7.45,-15.784 7.295,-15.955 7.186,-16.062 7.07,-16.178 6.881,-16.339 6.759,-16.435 6.637,-16.531 6.434,-16.672 6.312,-16.748 6.189,-16.822 5.992,-16.93 5.871,-16.983 5.756,-17.046 5.531,-17.132 5.389,-17.182 5.24,-17.235 4.976,-17.31 4.799,-17.35 L 4.48,-17.417 0.23,-17.424 c -3.763,-0.014 -4.279,-0.008 -4.536,0.033 -0.163,0.02 -0.399,0.068 -0.542,0.101 -0.136,0.034 -0.345,0.095 -0.461,0.143 -0.123,0.041 -0.326,0.136 -0.461,0.204 -0.142,0.067 -0.345,0.182 -0.468,0.263 -0.121,0.075 -0.278,0.192 -0.36,0.252 -0.074,0.054 -0.25,0.223 -0.392,0.359 -0.143,0.142 -0.346,0.373 -0.455,0.515 -0.108,0.136 -0.244,0.339 -0.305,0.449 -0.061,0.101 -0.156,0.284 -0.21,0.399 -0.054,0.114 -0.136,0.319 -0.177,0.44 -0.047,0.121 -0.115,0.36 -0.148,0.53 -0.041,0.161 -0.082,0.453 -0.096,0.643 -0.014,0.19 -0.264,2.089 -0.562,4.217 -0.298,2.136 -0.542,3.899 -0.549,3.912 M -19.33,-27.54 h -2.272 v -8.224 l -0.067,-0.054 c -0.04,-0.028 -0.894,-0.509 -1.905,-1.072 l -1.823,-1.024 0.047,-0.081 c 0.027,-0.047 1.309,-2.325 2.84,-5.071 1.533,-2.739 2.793,-4.99 2.801,-4.99 0,-0.007 0.752,0.408 1.66,0.916 0.916,0.509 1.689,0.943 1.723,0.962 l 0.055,0.042 1.68,-0.971 c 0.929,-0.535 3.41,-1.974 5.519,-3.186 l 3.831,-2.21 v -3.899 H 6.393 v 4.61 l 3.396,1.959 c 1.871,1.079 4.068,2.354 4.896,2.829 l 1.498,0.86 1.715,-0.963 c 0.95,-0.523 1.722,-0.956 1.729,-0.949 0,0 1.274,2.279 2.834,5.057 1.553,2.78 2.827,5.058 2.834,5.072 0,0.013 -0.841,0.494 -1.871,1.071 l -1.871,1.051 -0.014,4.13 -0.014,4.122 -4.556,0.013 0.013,-0.062 c 0.014,-0.026 0.041,-0.203 0.069,-0.385 0.027,-0.184 0.074,-0.543 0.108,-0.807 0.027,-0.259 0.062,-0.705 0.081,-0.99 0.021,-0.305 0.021,-0.788 0.014,-1.187 -0.007,-0.366 -0.033,-0.875 -0.055,-1.119 -0.019,-0.25 -0.067,-0.63 -0.094,-0.854 -0.027,-0.217 -0.082,-0.562 -0.123,-0.766 -0.033,-0.196 -0.107,-0.543 -0.156,-0.767 -0.054,-0.222 -0.148,-0.595 -0.209,-0.819 -0.061,-0.224 -0.177,-0.59 -0.252,-0.821 -0.074,-0.223 -0.203,-0.569 -0.284,-0.773 -0.075,-0.202 -0.21,-0.522 -0.292,-0.699 -0.074,-0.182 -0.236,-0.52 -0.351,-0.751 -0.116,-0.238 -0.313,-0.604 -0.435,-0.821 -0.129,-0.217 -0.312,-0.528 -0.413,-0.684 -0.102,-0.163 -0.265,-0.408 -0.36,-0.543 -0.095,-0.135 -0.278,-0.392 -0.407,-0.57 -0.129,-0.17 -0.339,-0.44 -0.461,-0.589 -0.122,-0.157 -0.366,-0.434 -0.536,-0.624 -0.169,-0.184 -0.514,-0.55 -0.779,-0.8 -0.258,-0.258 -0.596,-0.576 -0.752,-0.712 -0.163,-0.135 -0.428,-0.352 -0.598,-0.487 -0.176,-0.138 -0.487,-0.381 -0.705,-0.53 -0.217,-0.156 -0.549,-0.38 -0.738,-0.502 -0.19,-0.123 -0.516,-0.319 -0.726,-0.434 -0.203,-0.122 -0.616,-0.34 -0.915,-0.489 -0.304,-0.147 -0.691,-0.331 -0.868,-0.406 -0.183,-0.074 -0.528,-0.21 -0.779,-0.305 -0.251,-0.094 -0.638,-0.224 -0.855,-0.292 -0.216,-0.068 -0.596,-0.175 -0.84,-0.236 -0.244,-0.067 -0.658,-0.157 -0.909,-0.21 -0.258,-0.048 -0.631,-0.116 -0.834,-0.142 -0.204,-0.035 -0.542,-0.075 -0.753,-0.096 -0.21,-0.02 -0.576,-0.053 -0.813,-0.068 -0.243,-0.013 -0.691,-0.027 -1.003,-0.027 -0.313,0 -0.76,0.014 -0.99,0.027 -0.231,0.015 -0.604,0.041 -0.821,0.068 -0.216,0.021 -0.589,0.068 -0.827,0.108 -0.237,0.035 -0.583,0.096 -0.766,0.13 -0.183,0.033 -0.501,0.108 -0.711,0.155 -0.211,0.055 -0.523,0.137 -0.699,0.19 -0.176,0.048 -0.481,0.143 -0.678,0.21 -0.196,0.068 -0.529,0.183 -0.738,0.265 -0.211,0.081 -0.549,0.223 -0.753,0.312 -0.205,0.095 -0.57,0.264 -0.807,0.387 -0.237,0.114 -0.597,0.311 -0.8,0.427 -0.203,0.114 -0.536,0.318 -0.732,0.441 -0.203,0.128 -0.509,0.338 -0.686,0.467 -0.176,0.121 -0.467,0.338 -0.637,0.469 -0.169,0.134 -0.46,0.371 -0.644,0.526 -0.183,0.164 -0.549,0.496 -0.807,0.754 -0.258,0.25 -0.617,0.623 -0.8,0.826 -0.182,0.205 -0.46,0.537 -0.629,0.74 -0.163,0.202 -0.421,0.55 -0.577,0.767 -0.156,0.217 -0.38,0.548 -0.502,0.737 -0.115,0.191 -0.318,0.523 -0.441,0.74 -0.121,0.217 -0.318,0.583 -0.44,0.821 -0.116,0.231 -0.279,0.576 -0.36,0.758 -0.081,0.191 -0.217,0.508 -0.292,0.707 -0.074,0.189 -0.195,0.527 -0.27,0.744 -0.075,0.224 -0.169,0.523 -0.21,0.679 -0.048,0.149 -0.123,0.44 -0.177,0.644 -0.048,0.203 -0.122,0.515 -0.155,0.697 -0.041,0.177 -0.102,0.502 -0.137,0.719 -0.033,0.217 -0.088,0.611 -0.115,0.874 -0.027,0.267 -0.068,0.726 -0.08,1.032 -0.022,0.326 -0.028,0.835 -0.022,1.213 0.014,0.366 0.034,0.86 0.062,1.099 0.02,0.237 0.053,0.522 0.067,0.63 0.014,0.109 0.048,0.359 0.082,0.557 0.028,0.196 0.055,0.378 0.061,0.399 l 0.013,0.048 z"
             style="fill:#97988c;fill-opacity:1;fill-rule:nonzero;stroke:none"
             id="path308"
             transform="translate(395.4209,603.0659)"
             inkscape:label="logomark"
             inkscape:export-filename="../501d11ac/logomark.svg"
             inkscape:export-xdpi="96"
             inkscape:export-ydpi="96" />
          <path
             id="path10979"
             style="font-weight:600;font-size:74.6318px;font-family:'Oceanwide QLt';-inkscape-font-specification:Oceanwide-Semibold;fill:#97988c"
             inkscape:label="F"
             d="M 6.8511279 -54.407211 L 6.8511279 1.693512e-05 L 20.881402 1.693512e-05 L 20.881402 -23.066878 L 43.292047 -23.066878 L 43.292047 -33.672347 L 20.881402 -33.672347 L 20.881402 -43.801742 L 44.712945 -43.801742 L 44.712945 -54.407211 L 6.8511279 -54.407211 z "
             transform="matrix(1,0,0,-1,309.9814,547.5952)" />
        </g>
      </g>
      <g
         aria-label="WORLDWIDE"
         transform="matrix(1,0,0,-1,387.4521,492.7173)"
         id="text318"
         style="font-size:32.9768px;font-family:'SF Pro Display';-inkscape-font-specification:SFProDisplay-Regular;fill:#9d9e92"
         inkscape:export-filename="../d4e033a5/slogan.svg"
         inkscape:export-xdpi="96"
         inkscape:export-ydpi="96"
         inkscape:label="slogan">
        <path
           d="M 1.0949328,-24.040215 H 4.3797311 L 9.4357442,-3.7195511 14.475655,-24.040215 h 3.655144 l 5.056013,20.3206639 5.039911,-20.3206639 h 3.3009 L 25.489391,0 H 21.399495 L 16.32738,-20.868131 11.206959,0 H 7.1170631 Z"
           id="path6791"
           inkscape:label="W" />
        <path
           d="m 96.076025,-21.834248 q -3.54243,0 -5.635684,2.64072 -2.077152,2.640721 -2.077152,7.197573 0,4.5407509 2.077152,7.1814712 2.093254,2.6407202 5.635684,2.6407202 3.542429,0 5.603475,-2.6407202 2.07716,-2.6407203 2.07716,-7.1814712 0,-4.556852 -2.07716,-7.197573 -2.061046,-2.64072 -5.603475,-2.64072 z m 0,-2.64072 q 5.056015,0 8.083175,3.397512 3.02717,3.38141 3.02717,9.081501 0,5.6839896 -3.02717,9.0815016 -3.02716,3.38141003 -8.083175,3.38141003 -5.072115,0 -8.115384,-3.38141003 -3.027167,-3.3814101 -3.027167,-9.0815016 0,-5.700091 3.027167,-9.081501 3.043269,-3.397512 8.115384,-3.397512 z"
           id="path6793"
           inkscape:label="O" />
        <path
           d="m 175.24689,-11.271367 q 1.04663,0.354243 2.02885,1.5135837 0.99832,1.1593406 1.99664,3.1881866 L 182.57328,0 h -3.49413 l -3.07547,-6.1670479 q -1.19154,-2.4152929 -2.31868,-3.2042885 -1.11103,-0.7889956 -3.04327,-0.7889956 H 167.0993 V 0 h -3.25259 v -24.040215 h 7.34249 q 4.1221,0 6.15094,1.722909 2.02885,1.722909 2.02885,5.20093 0,2.270376 -1.06273,3.767857 -1.04663,1.497482 -3.05937,2.077152 z m -8.14759,-10.095924 v 8.534035 h 4.0899 q 2.35088,0 3.54243,-1.078831 1.20764,-1.094933 1.20764,-3.204289 0,-2.109355 -1.20764,-3.172084 -1.19155,-1.078831 -3.54243,-1.078831 z"
           id="path6795"
           inkscape:label="E" />
        <path
           d="m 237.02221,-24.040215 h 3.2526 v 21.3028831 h 11.70612 V 0 h -14.95872 z"
           id="path6797"
           inkscape:label="L" />
        <path
           d="m 310.97706,-21.367291 v 18.6943669 h 3.92888 q 4.9755,0 7.27808,-2.2542734 2.31868,-2.2542734 2.31868,-7.1170635 0,-4.830585 -2.31868,-7.068757 -2.30258,-2.254273 -7.27808,-2.254273 z m -3.25259,-2.672924 h 6.68231 q 6.98825,0 10.25694,2.914453 3.2687,2.898352 3.2687,9.081501 0,6.2153541 -3.2848,9.1298076 Q 321.36282,0 314.40678,0 h -6.68231 z"
           id="path6799"
           inkscape:label="D" />
        <path
           d="m 380.56557,-24.040215 h 3.2848 l 5.05602,20.3206639 5.03991,-20.3206639 h 3.65514 l 5.05601,20.3206639 5.03992,-20.3206639 h 3.3009 L 404.96003,0 h -4.08989 L 395.79802,-20.868131 390.6776,0 h -4.08989 z"
           id="path6801"
           inkscape:label="W" />
        <path
           d="m 466.60011,-24.040215 h 3.25259 V 0 h -3.25259 z"
           id="path6803"
           inkscape:label="I" />
        <path
           d="m 530.6949,-21.367291 v 18.6943669 h 3.92887 q 4.97551,0 7.27809,-2.2542734 2.31868,-2.2542734 2.31868,-7.1170635 0,-4.830585 -2.31868,-7.068757 -2.30258,-2.254273 -7.27809,-2.254273 z m -3.2526,-2.672924 h 6.68231 q 6.98825,0 10.25695,2.914453 3.26869,2.898352 3.26869,9.081501 0,6.2153541 -3.28479,9.1298076 Q 541.08066,0 534.12461,0 h -6.68231 z"
           id="path6805"
           inkscape:label="D" />
        <path
           d="m 603.223,-24.040215 h 15.20025 v 2.737332 H 606.4756 v 7.117063 h 11.44849 v 2.737332 H 606.4756 v 8.7111561 h 12.23748 V 0 H 603.223 Z"
           id="path6807"
           inkscape:label="E" />
      </g>
    </g>
  </g>
</svg>
