<?xml version="1.0" encoding="UTF-8" standalone="no"?>
<!-- Created with Inkscape (http://www.inkscape.org/) -->

<svg
   version="1.1"
   id="svg148"
   width="823.49084"
   height="33.255905"
   viewBox="0 0 823.49084 33.255906"
   sodipodi:docname="logo.svg"
   inkscape:version="1.2.2 (732a01da63, 2022-12-09, custom)"
   xmlns:inkscape="http://www.inkscape.org/namespaces/inkscape"
   xmlns:sodipodi="http://sodipodi.sourceforge.net/DTD/sodipodi-0.dtd"
   xmlns="http://www.w3.org/2000/svg"
   xmlns:svg="http://www.w3.org/2000/svg">
  <defs
     id="defs152" />
  <sodipodi:namedview
     id="namedview150"
     pagecolor="#505050"
     bordercolor="#ffffff"
     borderopacity="1"
     inkscape:showpageshadow="0"
     inkscape:pageopacity="0"
     inkscape:pagecheckerboard="1"
     inkscape:deskcolor="#505050"
     showgrid="false"
     showguides="false"
     inkscape:zoom="0.60488684"
     inkscape:cx="633.17628"
     inkscape:cy="65.30147"
     inkscape:window-width="1360"
     inkscape:window-height="737"
     inkscape:window-x="0"
     inkscape:window-y="0"
     inkscape:window-maximized="1"
     inkscape:current-layer="text318" />
  <g
     id="g272"
     inkscape:groupmode="layer"
     inkscape:label="Page 3"
     transform="matrix(1.3333333,0,0,-1.3333333,-518.0627,689.58968)">
    <g
       aria-label="WORLDWIDE"
       transform="matrix(1,0,0,-1,387.4521,492.7173)"
       id="text318"
       style="font-size:32.9768px;font-family:'SF Pro Display';-inkscape-font-specification:SFProDisplay-Regular;fill:#9d9e92">
      <path
         d="M 1.0949328,-24.040215 H 4.3797311 L 9.4357442,-3.7195511 14.475655,-24.040215 h 3.655144 l 5.056013,20.3206639 5.039911,-20.3206639 h 3.3009 L 25.489391,0 H 21.399495 L 16.32738,-20.868131 11.206959,0 H 7.1170631 Z"
         id="path6791" />
      <path
         d="m 96.076025,-21.834248 q -3.54243,0 -5.635684,2.64072 -2.077152,2.640721 -2.077152,7.197573 0,4.5407509 2.077152,7.1814712 2.093254,2.6407202 5.635684,2.6407202 3.542429,0 5.603475,-2.6407202 2.07716,-2.6407203 2.07716,-7.1814712 0,-4.556852 -2.07716,-7.197573 -2.061046,-2.64072 -5.603475,-2.64072 z m 0,-2.64072 q 5.056015,0 8.083175,3.397512 3.02717,3.38141 3.02717,9.081501 0,5.6839896 -3.02717,9.0815016 -3.02716,3.38141003 -8.083175,3.38141003 -5.072115,0 -8.115384,-3.38141003 -3.027167,-3.3814101 -3.027167,-9.0815016 0,-5.700091 3.027167,-9.081501 3.043269,-3.397512 8.115384,-3.397512 z"
         id="path6793" />
      <path
         d="m 175.24689,-11.271367 q 1.04663,0.354243 2.02885,1.5135837 0.99832,1.1593406 1.99664,3.1881866 L 182.57328,0 h -3.49413 l -3.07547,-6.1670479 q -1.19154,-2.4152929 -2.31868,-3.2042885 -1.11103,-0.7889956 -3.04327,-0.7889956 H 167.0993 V 0 h -3.25259 v -24.040215 h 7.34249 q 4.1221,0 6.15094,1.722909 2.02885,1.722909 2.02885,5.20093 0,2.270376 -1.06273,3.767857 -1.04663,1.497482 -3.05937,2.077152 z m -8.14759,-10.095924 v 8.534035 h 4.0899 q 2.35088,0 3.54243,-1.078831 1.20764,-1.094933 1.20764,-3.204289 0,-2.109355 -1.20764,-3.172084 -1.19155,-1.078831 -3.54243,-1.078831 z"
         id="path6795" />
      <path
         d="m 237.02221,-24.040215 h 3.2526 v 21.3028831 h 11.70612 V 0 h -14.95872 z"
         id="path6797" />
      <path
         d="m 310.97706,-21.367291 v 18.6943669 h 3.92888 q 4.9755,0 7.27808,-2.2542734 2.31868,-2.2542734 2.31868,-7.1170635 0,-4.830585 -2.31868,-7.068757 -2.30258,-2.254273 -7.27808,-2.254273 z m -3.25259,-2.672924 h 6.68231 q 6.98825,0 10.25694,2.914453 3.2687,2.898352 3.2687,9.081501 0,6.2153541 -3.2848,9.1298076 Q 321.36282,0 314.40678,0 h -6.68231 z"
         id="path6799" />
      <path
         d="m 380.56557,-24.040215 h 3.2848 l 5.05602,20.3206639 5.03991,-20.3206639 h 3.65514 l 5.05601,20.3206639 5.03992,-20.3206639 h 3.3009 L 404.96003,0 h -4.08989 L 395.79802,-20.868131 390.6776,0 h -4.08989 z"
         id="path6801" />
      <path
         d="m 466.60011,-24.040215 h 3.25259 V 0 h -3.25259 z"
         id="path6803" />
      <path
         d="m 530.6949,-21.367291 v 18.6943669 h 3.92887 q 4.97551,0 7.27809,-2.2542734 2.31868,-2.2542734 2.31868,-7.1170635 0,-4.830585 -2.31868,-7.068757 -2.30258,-2.254273 -7.27809,-2.254273 z m -3.2526,-2.672924 h 6.68231 q 6.98825,0 10.25695,2.914453 3.26869,2.898352 3.26869,9.081501 0,6.2153541 -3.28479,9.1298076 Q 541.08066,0 534.12461,0 h -6.68231 z"
         id="path6805" />
      <path
         d="m 603.223,-24.040215 h 15.20025 v 2.737332 H 606.4756 v 7.117063 h 11.44849 v 2.737332 H 606.4756 v 8.7111561 h 12.23748 V 0 H 603.223 Z"
         id="path6807" />
    </g>
  </g>
</svg>
