<?xml version="1.0" encoding="UTF-8" standalone="no"?>
<!-- Created with Inkscape (http://www.inkscape.org/) -->

<svg
   version="1.1"
   id="svg1223"
   width="508.34067"
   height="508.33667"
   viewBox="0 0 508.34066 508.33666"
   sodipodi:docname="grom3_2.eps"
   xmlns:inkscape="http://www.inkscape.org/namespaces/inkscape"
   xmlns:sodipodi="http://sodipodi.sourceforge.net/DTD/sodipodi-0.dtd"
   xmlns="http://www.w3.org/2000/svg"
   xmlns:svg="http://www.w3.org/2000/svg">
  <defs
     id="defs1227" />
  <sodipodi:namedview
     id="namedview1225"
     pagecolor="#505050"
     bordercolor="#ffffff"
     borderopacity="1"
     inkscape:showpageshadow="0"
     inkscape:pageopacity="0"
     inkscape:pagecheckerboard="1"
     inkscape:deskcolor="#505050"
     showgrid="false" />
  <g
     id="g1231"
     inkscape:groupmode="layer"
     inkscape:label="Page 1"
     transform="matrix(1.3333333,0,0,-1.3333333,-450.275,1723.03)">
    <g
       id="g1233"
       transform="scale(0.1)">
      <path
         d="m 5054.54,9205 -1582.7,1582.7 c -126.37,126.3 -126.37,331.2 0,457.6 l 1582.7,1582.7 c 126.36,126.3 331.24,126.3 457.6,0 l 1582.7,-1582.7 c 126.37,-126.4 126.37,-331.3 0,-457.6 L 5512.14,9205 c -126.36,-126.4 -331.24,-126.4 -457.6,0"
         style="fill:#f2a264;fill-opacity:1;fill-rule:nonzero;stroke:none"
         id="path1243" />
      <path
         d="m 5269.28,11066 c -15.34,-18.2 -41.81,-19.5 -58.83,-2.8 l -101.32,99.7 c -17.03,16.8 -18.62,43 -3.55,58.3 15.07,15.3 41.31,14.1 58.33,-2.6 l 41.07,-40.4 c 17.01,-16.8 43.49,-15.5 58.82,2.8 l 136.87,163 c 15.35,18.3 41.37,21.9 57.82,8.1 16.45,-13.8 17.35,-40.1 2,-58.3 L 5269.28,11066"
         style="fill:#ffffff;fill-opacity:1;fill-rule:nonzero;stroke:none"
         id="path1383" />
      <path
         d="m 5094.63,10565.8 c 1.56,1 3.06,2.3 4.33,3.9 l 9.07,11.2 21.36,26.6 c 6.98,8.8 5.6,21.5 -3.11,28.5 l -28.68,23.1 c -8.74,7 -21.48,5.6 -28.48,-3.2 l -17.76,-22.1 -12.68,-15.7 c 0,-0.1 -0.03,-0.1 -0.03,-0.1 -1.64,-2.1 -2.79,-4.3 -3.51,-6.7 l -24.19,18.9 -11.3,-1.4 -101.57,-12.9 71.74,321.4 h 204.51 100.94 l 7.73,-7 3.28,-3 -63.38,-78.9 -26,-32.4 c 0,0 -12.22,-13.3 -11.07,-28.6 0.43,-5.4 2.5,-11.1 7.41,-16.5 23.23,-25.4 76.32,-5.8 76.32,-5.8 l 66.07,78.9 c 0,0 8.59,11.2 23.78,16.9 l 231.95,-210.5 -49.58,-46.2 c -0.61,0.7 -1.24,1.5 -1.99,2.2 l -173.55,160.2 c -8.22,7.6 -21.04,7 -28.62,-1.2 -7.59,-8.2 -7.06,-21 1.15,-28.6 l 173.52,-160.1 -12.74,-11.9 -28.53,-26.6 c -0.09,0.1 -0.15,0.2 -0.23,0.3 -0.93,1.4 -2,2.8 -3.32,4 l -144.15,128.3 c -8.33,7.5 -21.13,6.7 -28.56,-1.6 -7.44,-8.4 -6.72,-21.2 1.64,-28.6 l 144.12,-128.4 c 0.26,-0.2 0.54,-0.3 0.8,-0.6 0.24,-0.2 0.47,-0.3 0.7,-0.5 l -41.91,-39 c -0.2,0.4 -0.49,0.8 -0.75,1.2 -1.04,1.8 -2.31,3.5 -3.95,5 l -118.07,105.1 c -8.36,7.5 -21.15,6.7 -28.59,-1.6 -7.44,-8.4 -6.68,-21.2 1.67,-28.6 l 118.04,-105.1 c 0.57,-0.5 1.21,-0.9 1.81,-1.4 0.53,-0.3 1.01,-0.7 1.56,-1 l -19.19,-17.9 c -0.24,0.7 -0.58,1.3 -0.87,2 -1.27,2.9 -3.14,5.5 -5.74,7.6 l -28.68,23 c -8.7,7 -21.47,5.6 -28.48,-3.1 l -20.69,-25.7 -1.07,-1.4 -17.15,13.4 2.28,2.8 20.24,25.2 c 7,8.8 5.62,21.5 -3.12,28.5 l -28.65,23 c -8.73,7.1 -21.47,5.7 -28.48,-3.1 l -16.66,-20.7 -6.54,-8.1 -17.18,13.4 7.73,9.6 20.86,26 c 7.01,8.7 5.62,21.4 -3.11,28.4 l -28.68,23.1 c -8.7,7 -21.44,5.6 -28.45,-3.1 l -17.29,-21.5 -12,-15 -10.43,8.2 -6.46,5 c 0.2,0.2 0.41,0.3 0.61,0.5 z m 538.49,394.5 c -4.15,18.6 -20.66,31.7 -39.49,31.7 -0.83,0 -1.67,0 -2.51,-0.1 l -243.27,-14.8 c -9.2,-0.6 -17.93,-4.3 -24.76,-10.5 l -9.95,-9 -10.66,9.7 c -7.47,6.7 -17.15,10.5 -27.21,10.5 h -100.94 -204.51 c -18.99,0 -35.4,-13.2 -39.55,-31.7 l -71.71,-321.4 c -2.88,-12.9 0.69,-26.3 9.6,-36.1 7.69,-8.5 18.62,-13.2 29.92,-13.2 1.7,0 3.4,0.1 5.1,0.3 l 96.13,12.2 256.91,-200.5 26.63,-24.9 c 7.76,-7.2 17.7,-10.9 27.61,-10.9 2.63,0 5.22,0.3 7.79,0.8 8.87,0.7 17.55,4.3 24.47,10.7 l 184.27,171.9 91.09,83.2 31.85,-9.4 c 3.77,-1.2 7.63,-1.7 11.47,-1.7 10.14,0 20.06,3.8 27.67,10.9 10.49,9.8 14.99,24.4 11.87,38.4 l -67.82,303.9"
         style="fill:#ffffff;fill-opacity:1;fill-rule:nonzero;stroke:none"
         id="path1385" />
      <path
         d="m 4889.69,10964.2 c -3.86,4.8 -9.66,7.5 -15.8,7.5 h -183.06 c -11.18,0 -20.23,-9 -20.23,-20.2 v -413.4 c 0,-11.2 9.05,-20.3 20.23,-20.3 h 91.95 c 9.51,0 17.73,6.6 19.77,15.9 l 91.12,413.4 c 1.32,6 -0.15,12.3 -3.98,17.1"
         style="fill:#ffffff;fill-opacity:1;fill-rule:nonzero;stroke:none"
         id="path1387" />
      <path
         d="m 4959.93,11021.4 c 3.25,0.4 6.54,0.7 9.89,0.7 h 90.32 c -28.05,46.7 -50.63,101.8 -67.63,165 -26.9,100 -32.28,195.7 -32.92,247.8 167.04,10 273.65,77.4 323.75,118.4 50.1,-41 156.71,-108.4 323.73,-118.4 -1.03,-79.3 -13.26,-259.6 -95.83,-403.5 l 77.19,4.7 c 1.53,0.1 3.37,0.2 5.2,0.2 6.62,0 13.05,-0.8 19.26,-2.3 18.91,40.3 34.82,84.5 47.56,132.3 43.06,161.8 35.04,308.1 34.68,314.3 l -2.46,41.8 -41.91,-0.1 c -0.45,0 -0.86,0 -1.31,0 -222.94,0 -328.4,115.7 -332.62,120.4 l -33.49,38.6 -33.49,-38.6 c -1.05,-1.2 -107.17,-120.4 -332.63,-120.4 -0.43,0 -0.87,0 -1.3,0 l -41.91,0.1 -2.46,-41.8 c -0.36,-6.2 -8.37,-152.5 34.68,-314.3 14.09,-52.9 32.08,-101.2 53.7,-144.9"
         style="fill:#ffffff;fill-opacity:1;fill-rule:nonzero;stroke:none"
         id="path1389" />
      <path
         d="m 5875.85,10988.7 h -183.06 c -6.14,0 -11.96,-2.8 -15.8,-7.6 -3.83,-4.8 -5.3,-11.1 -3.98,-17 l 91.12,-413.5 c 2.04,-9.2 10.26,-15.9 19.77,-15.9 h 91.95 c 11.19,0 20.23,9.1 20.23,20.3 v 413.4 c 0,11.2 -9.04,20.3 -20.23,20.3"
         style="fill:#ffffff;fill-opacity:1;fill-rule:nonzero;stroke:none"
         id="path1391" />
    </g>
  </g>
</svg>
