<?xml version="1.0" encoding="UTF-8" standalone="no"?>
<!-- Created with Inkscape (http://www.inkscape.org/) -->

<svg
   version="1.1"
   id="svg1223"
   width="508.34064"
   height="508.33655"
   viewBox="0 0 508.34063 508.33654"
   sodipodi:docname="grom3_2.eps"
   xmlns:inkscape="http://www.inkscape.org/namespaces/inkscape"
   xmlns:sodipodi="http://sodipodi.sourceforge.net/DTD/sodipodi-0.dtd"
   xmlns="http://www.w3.org/2000/svg"
   xmlns:svg="http://www.w3.org/2000/svg">
  <defs
     id="defs1227" />
  <sodipodi:namedview
     id="namedview1225"
     pagecolor="#505050"
     bordercolor="#ffffff"
     borderopacity="1"
     inkscape:showpageshadow="0"
     inkscape:pageopacity="0"
     inkscape:pagecheckerboard="1"
     inkscape:deskcolor="#505050"
     showgrid="false" />
  <g
     id="g1231"
     inkscape:groupmode="layer"
     inkscape:label="Page 1"
     transform="matrix(1.3333333,0,0,-1.3333333,-765.82966,772.47001)">
    <g
       id="g1233"
       transform="scale(0.1)">
      <path
         d="M 7421.2,2075.8 5838.5,3658.5 c -126.37,126.3 -126.37,331.2 0,457.6 l 1582.7,1582.7 c 126.36,126.3 331.24,126.3 457.6,0 L 9461.5,4116.1 c 126.37,-126.4 126.37,-331.3 0,-457.6 L 7878.8,2075.8 c -126.36,-126.4 -331.24,-126.4 -457.6,0"
         style="fill:#55c6ca;fill-opacity:1;fill-rule:nonzero;stroke:none"
         id="path1267" />
      <path
         d="m 7511.86,3636.9 -113.52,-53.6 -108.45,-264.2 260.55,-217.6 80.74,362.1 -44.15,64.1 -75.17,109.2"
         style="fill:#ffffff;fill-opacity:1;fill-rule:nonzero;stroke:none"
         id="path1417" />
      <path
         d="m 7798.43,3636.9 113.51,-53.6 108.48,-264.2 -260.61,-217.6 -80.7,362.1 44.15,64.1 75.17,109.2"
         style="fill:#ffffff;fill-opacity:1;fill-rule:nonzero;stroke:none"
         id="path1419" />
      <path
         d="m 7688.17,3785 c -186.84,-21.1 -355.35,113.3 -376.41,300.1 -21.13,186.8 113.26,355.3 300.08,376.4 186.75,21.1 355.29,-113.3 376.38,-300.1 21.09,-186.8 -113.29,-355.3 -300.05,-376.4 z m 511.61,337.4 -153.45,106.4 80.19,168.6 -186.06,15.4 -14.86,186.1 -168.83,-79.6 -105.92,153.7 -106.37,-153.4 -168.62,80.2 -15.46,-186.1 -186.1,-14.8 79.67,-168.9 -153.75,-105.9 153.42,-106.4 -80.16,-168.6 186.04,-15.4 14.84,-186.1 69.45,32.7 99.42,47 105.9,-153.8 20.61,29.7 85.78,123.7 168.62,-80.2 15.4,186.1 186.11,14.8 -79.67,168.9 153.8,105.9"
         style="fill:#ffffff;fill-opacity:1;fill-rule:nonzero;stroke:none"
         id="path1421" />
      <path
         d="m 7642.7,3934.1 c -18.8,-22.4 -51.24,-24 -72.09,-3.5 l -124.17,122.2 c -20.85,20.5 -22.81,52.6 -4.34,71.4 18.46,18.8 50.61,17.4 71.47,-3.2 l 50.33,-49.5 c 20.85,-20.5 53.3,-19 72.1,3.4 l 167.72,199.8 c 18.8,22.4 50.68,26.9 70.85,9.9 20.15,-16.9 21.26,-49.1 2.46,-71.5 l -234.33,-279"
         style="fill:#ffffff;fill-opacity:1;fill-rule:nonzero;stroke:none"
         id="path1423" />
    </g>
  </g>
</svg>
