<?xml version="1.0" encoding="UTF-8" standalone="no"?>
<!-- Created with Inkscape (http://www.inkscape.org/) -->

<svg
   version="1.1"
   id="svg1223"
   width="508.34067"
   height="508.33667"
   viewBox="0 0 508.34066 508.33666"
   sodipodi:docname="grom3_2.eps"
   xmlns:inkscape="http://www.inkscape.org/namespaces/inkscape"
   xmlns:sodipodi="http://sodipodi.sourceforge.net/DTD/sodipodi-0.dtd"
   xmlns="http://www.w3.org/2000/svg"
   xmlns:svg="http://www.w3.org/2000/svg">
  <defs
     id="defs1227" />
  <sodipodi:namedview
     id="namedview1225"
     pagecolor="#505050"
     bordercolor="#ffffff"
     borderopacity="1"
     inkscape:showpageshadow="0"
     inkscape:pageopacity="0"
     inkscape:pagecheckerboard="1"
     inkscape:deskcolor="#505050"
     showgrid="false" />
  <g
     id="g1231"
     inkscape:groupmode="layer"
     inkscape:label="Page 1"
     transform="matrix(1.3333333,0,0,-1.3333333,-450.275,1095.0566)">
    <g
       id="g1233"
       transform="scale(0.1)">
      <path
         d="m 5054.54,4495.2 -1582.7,1582.7 c -126.37,126.3 -126.37,331.2 0,457.6 l 1582.7,1582.7 c 126.36,126.3 331.24,126.3 457.6,0 l 1582.7,-1582.7 c 126.37,-126.4 126.37,-331.3 0,-457.6 L 5512.14,4495.2 c -126.36,-126.4 -331.24,-126.4 -457.6,0"
         style="fill:#3e98ba;fill-opacity:1;fill-rule:nonzero;stroke:none"
         id="path1261" />
      <path
         d="m 5435.22,6499.6 v 182.2 h -74.06 V 6444 l 74.06,55.6"
         style="fill:#ffffff;fill-opacity:1;fill-rule:nonzero;stroke:none"
         id="path1425" />
      <path
         d="m 5300.73,6418 v 341.5 h -74.06 v -267 l 74.06,-74.5"
         style="fill:#ffffff;fill-opacity:1;fill-rule:nonzero;stroke:none"
         id="path1427" />
      <path
         d="m 5166.25,6533.1 v 62.9 h -74.06 v -120 l 74.06,57.1"
         style="fill:#ffffff;fill-opacity:1;fill-rule:nonzero;stroke:none"
         id="path1429" />
      <path
         d="m 5534.29,6573.9 -38.65,48.6 v -77.6 z"
         style="fill:#ffffff;fill-opacity:1;fill-rule:nonzero;stroke:none"
         id="path1431" />
      <path
         d="m 5569.7,6643.1 v 211.6 h -74.06 v -203.2 l 74.06,-8.4"
         style="fill:#ffffff;fill-opacity:1;fill-rule:nonzero;stroke:none"
         id="path1433" />
      <path
         d="m 5166.08,6367.1 -73.89,-57 v -109.9 h 74.06 v 166.7 l -0.17,0.2"
         style="fill:#ffffff;fill-opacity:1;fill-rule:nonzero;stroke:none"
         id="path1435" />
      <path
         d="m 5361.16,6279.8 v -79.6 h 74.06 v 135.1 l -74.06,-55.5"
         style="fill:#ffffff;fill-opacity:1;fill-rule:nonzero;stroke:none"
         id="path1437" />
      <path
         d="m 5495.64,6380.7 v -180.5 h 74.06 v 236.1 l -74.06,-55.6"
         style="fill:#ffffff;fill-opacity:1;fill-rule:nonzero;stroke:none"
         id="path1439" />
      <path
         d="m 5299.16,6233.2 -72.49,72.9 v -105.9 h 74.06 v 34.2 l -1.57,-1.2"
         style="fill:#ffffff;fill-opacity:1;fill-rule:nonzero;stroke:none"
         id="path1441" />
      <path
         d="m 5031.76,6429.4 v 12.6 h -74.05 v -69.7 l 74.05,57.1"
         style="fill:#ffffff;fill-opacity:1;fill-rule:nonzero;stroke:none"
         id="path1443" />
      <path
         d="m 4957.71,6206.4 v -6.2 h 74.05 v 63.3 l -74.05,-57.1"
         style="fill:#ffffff;fill-opacity:1;fill-rule:nonzero;stroke:none"
         id="path1445" />
      <path
         d="m 5680.97,6603.6 -149.63,16.9 40.98,-51.4 -263.15,-197.5 -133.92,134.7 -289.54,-223.3 47.59,-61.7 235.12,181.3 133.29,-134.1 319.18,239.6 43.14,-54.1 16.94,149.6"
         style="fill:#ffffff;fill-opacity:1;fill-rule:nonzero;stroke:none"
         id="path1447" />
      <path
         d="m 4784.52,5670.9 h 997.64 v 1271.6 h -997.64 z m 1074.1,-76.5 H 4708.07 V 7018.9 H 5858.62 V 5594.4"
         style="fill:#ffffff;fill-opacity:1;fill-rule:nonzero;stroke:none"
         id="path1449" />
      <path
         d="m 5300.73,6032.8 h -343.02 v 75.5 h 343.02 v -75.5"
         style="fill:#ffffff;fill-opacity:1;fill-rule:nonzero;stroke:none"
         id="path1451" />
      <path
         d="m 5569.7,5889.8 h -611.99 v 75.6 h 611.99 v -75.6"
         style="fill:#ffffff;fill-opacity:1;fill-rule:nonzero;stroke:none"
         id="path1453" />
      <path
         d="m 5569.7,5746.9 h -611.99 v 75.5 h 611.99 v -75.5"
         style="fill:#ffffff;fill-opacity:1;fill-rule:nonzero;stroke:none"
         id="path1455" />
    </g>
  </g>
</svg>
