<?xml version="1.0" encoding="UTF-8" standalone="no"?>
<!-- Created with Inkscape (http://www.inkscape.org/) -->

<svg
   version="1.1"
   id="svg1223"
   width="508.33655"
   height="508.34668"
   viewBox="0 0 508.33654 508.34667"
   sodipodi:docname="grom3_2.eps"
   xmlns:inkscape="http://www.inkscape.org/namespaces/inkscape"
   xmlns:sodipodi="http://sodipodi.sourceforge.net/DTD/sodipodi-0.dtd"
   xmlns="http://www.w3.org/2000/svg"
   xmlns:svg="http://www.w3.org/2000/svg">
  <defs
     id="defs1227" />
  <sodipodi:namedview
     id="namedview1225"
     pagecolor="#505050"
     bordercolor="#ffffff"
     borderopacity="1"
     inkscape:showpageshadow="0"
     inkscape:pageopacity="0"
     inkscape:pagecheckerboard="1"
     inkscape:deskcolor="#505050"
     showgrid="false" />
  <g
     id="g1231"
     inkscape:groupmode="layer"
     inkscape:label="Page 1"
     transform="matrix(1.3333333,0,0,-1.3333333,-1396.9434,1408.56)">
    <g
       id="g1233"
       transform="scale(0.1)">
      <path
         d="m 12154.5,6846.4 -1582.7,1582.7 c -126.3,126.4 -126.3,331.2 0,457.6 l 1582.7,1582.7 c 126.4,126.4 331.3,126.4 457.6,0 l 1582.7,-1582.7 c 126.4,-126.4 126.4,-331.2 0,-457.6 L 12612.1,6846.4 c -126.3,-126.4 -331.2,-126.4 -457.6,0"
         style="fill:#55c6ca;fill-opacity:1;fill-rule:nonzero;stroke:none"
         id="path1259" />
      <g
         id="g2556"
         transform="matrix(0.78143085,0,0,0.78143085,2770.3009,1691.414)">
        <path
           d="m 12400.493,10042.125 h -101.426 v 81.141 h 101.426 z m 0,-162.1467 h -101.426 v 81.141 h 101.426 z m 0,-162.1478 h -101.426 v 81.1414 h 101.426 z m 0,-162.1479 h -101.426 v 81.0067 h 101.426 v -81.0067"
           style="fill:#ffffff;fill-opacity:1;fill-rule:nonzero;stroke:none;stroke-width:1.35235"
           id="path1495-3" />
        <path
           d="m 11663.73,9844.6813 -40.571,70.323 87.768,50.578 40.57,-70.188 z m 81.141,-140.3742 -40.571,70.1871 87.768,50.7133 40.571,-70.1871 z m 81.006,-140.375 -40.57,70.1877 87.768,50.5781 40.571,-70.1878 z m 81.143,-140.5097 -40.572,70.1872 87.769,50.7133 40.57,-70.1872 -87.767,-50.7133"
           style="fill:#ffffff;fill-opacity:1;fill-rule:nonzero;stroke:none;stroke-width:1.35235"
           id="path1497-6" />
        <path
           d="m 11212.179,9356.075 -70.187,40.5708 50.578,87.7677 70.322,-40.5707 z m 140.374,-81.1412 -70.186,40.5705 50.712,87.7678 70.188,-40.5705 z m 140.51,-81.0061 -70.187,40.5707 50.577,87.7678 70.188,-40.5706 z m 140.374,-81.1412 -70.187,40.5707 50.713,87.7677 70.187,-40.5705 -50.713,-87.7679"
           style="fill:#ffffff;fill-opacity:1;fill-rule:nonzero;stroke:none;stroke-width:1.35235"
           id="path1499-7" />
        <path
           d="m 11065.448,8707.08 h -81.141 v 101.4265 h 81.141 z m 162.148,0 h -81.141 v 101.4265 h 81.141 z m 162.146,0 h -81.141 v 101.4265 h 81.141 z m 162.149,0 h -81.141 v 101.4265 h 81.141 V 8707.08"
           style="fill:#ffffff;fill-opacity:1;fill-rule:nonzero;stroke:none;stroke-width:1.35235"
           id="path1501-5" />
        <path
           d="m 11613.963,8274.3264 -50.713,87.7679 70.187,40.5706 50.713,-87.7678 z m -140.51,-81.006 -50.577,87.7678 70.187,40.5707 50.578,-87.7678 z m -140.374,-81.1414 -50.712,87.7679 70.186,40.5706 50.714,-87.7678 z m -140.509,-81.006 -50.578,87.7678 70.187,40.5707 50.713,-87.7678 -70.322,-40.5707"
           style="fill:#ffffff;fill-opacity:1;fill-rule:nonzero;stroke:none;stroke-width:1.35235"
           id="path1503-3" />
        <path
           d="m 13035.829,9844.6813 -87.767,50.713 40.57,70.188 87.768,-50.578 z m -81.005,-140.3742 -87.769,50.7133 40.571,70.1871 87.768,-50.7133 z m -81.141,-140.375 -87.769,50.578 40.571,70.1878 87.768,-50.5781 z m -81.007,-140.5097 -87.767,50.7133 40.57,70.1872 87.768,-50.7133 -40.571,-70.1872"
           style="fill:#ffffff;fill-opacity:1;fill-rule:nonzero;stroke:none;stroke-width:1.35235"
           id="path1505-5" />
        <path
           d="m 13487.517,9356.075 -50.714,87.7679 70.187,40.5707 50.713,-87.7678 z m -140.51,-81.1412 -50.714,87.7679 70.323,40.5705 50.577,-87.7678 z m -140.376,-81.0061 -50.713,87.7679 70.189,40.5706 50.713,-87.7678 z m -140.509,-81.1412 -50.577,87.7679 70.186,40.5705 50.578,-87.7677 -70.187,-40.5707"
           style="fill:#ffffff;fill-opacity:1;fill-rule:nonzero;stroke:none;stroke-width:1.35235"
           id="path1507-6" />
        <path
           d="m 13228.81,8707.08 h -81.141 v 101.4265 h 81.141 z m 162.148,0 h -81.141 v 101.4265 h 81.141 z m 162.146,0 h -81.141 v 101.4265 h 81.141 z m 162.149,0 h -81.006 v 101.4265 h 81.006 V 8707.08"
           style="fill:#ffffff;fill-opacity:1;fill-rule:nonzero;stroke:none;stroke-width:1.35235"
           id="path1509-2" />
        <path
           d="m 13085.731,8274.3264 -70.186,40.5707 50.577,87.7678 70.187,-40.5706 z m 140.376,-81.006 -70.189,40.5707 50.713,87.7678 70.189,-40.5707 z m 140.509,-81.1414 -70.323,40.5707 50.714,87.7678 70.186,-40.5706 z m 140.374,-81.006 -70.187,40.5706 50.714,87.7678 70.186,-40.5707 -50.713,-87.7678"
           style="fill:#ffffff;fill-opacity:1;fill-rule:nonzero;stroke:none;stroke-width:1.35235"
           id="path1511-9" />
        <path
           d="m 12328,8585.4 c -144.5,0 -262.1,117.5 -262.1,262 0,144.5 117.6,262.1 262.1,262.1 144.4,0 262,-117.6 262,-262.1 0,-144.5 -117.6,-262 -262,-262 z m 0,598 c -185.3,0 -336.1,-150.7 -336.1,-336 0,-185.3 150.8,-336.1 336.1,-336.1 185.2,0 336,150.8 336,336.1 0,185.3 -150.8,336 -336,336"
           style="fill:#ffffff;fill-opacity:1;fill-rule:nonzero;stroke:none"
           id="path1513" />
        <path
           d="m 12323.7,9030.9 h 11.1 c 7.9,0 14.3,6.4 14.3,14.2 v 31 c 0,7.9 -6.4,14.3 -14.3,14.3 h -11.1 c -7.8,0 -14.2,-6.4 -14.2,-14.3 v -31 c 0,-7.8 6.4,-14.2 14.2,-14.2"
           style="fill:#ffffff;fill-opacity:1;fill-rule:nonzero;stroke:none"
           id="path1515" />
        <path
           d="m 12437.7,8917.4 c -2.6,4.6 -7.4,7.1 -12.3,7.1 -2.4,0 -4.9,-0.6 -7.1,-1.9 l -80.2,-46.3 -59.2,102.6 c -1.9,3.2 -5,5.6 -8.6,6.6 -1.3,0.3 -2.5,0.5 -3.7,0.5 -2.5,0 -5,-0.7 -7.1,-1.9 l -9.7,-5.6 c -6.8,-3.9 -9.1,-12.6 -5.2,-19.4 l 57.7,-99.9 c -0.7,-1.4 -1.3,-2.9 -1.7,-4.5 l -13.3,-7.7 c -6.8,-3.9 -9.1,-12.6 -5.2,-19.4 l 5.5,-9.7 c 1.9,-3.2 5,-5.6 8.7,-6.6 1.2,-0.3 2.4,-0.5 3.7,-0.5 2.4,0 4.9,0.7 7.1,1.9 l 12.9,7.5 c 1.8,-0.5 3.5,-0.8 5.4,-1 l 9.1,-15.7 c 1.9,-3.3 5,-5.7 8.6,-6.7 1.2,-0.3 2.5,-0.5 3.7,-0.5 2.5,0 4.9,0.7 7.1,2 l 9.6,5.5 c 6.8,3.9 9.2,12.7 5.3,19.5 l -10.9,18.8 80.2,46.2 c 3.2,1.9 5.6,5 6.6,8.7 1,3.6 0.5,7.5 -1.4,10.8 l -5.6,9.6"
           style="fill:#ffffff;fill-opacity:1;fill-rule:nonzero;stroke:none"
           id="path1517" />
        <path
           d="m 12556.7,8867.2 h -31 c -7.9,0 -14.2,-6.4 -14.2,-14.2 v -11.2 c 0,-7.8 6.3,-14.2 14.2,-14.2 h 31 c 7.8,0 14.2,6.4 14.2,14.2 v 11.2 c 0,7.8 -6.4,14.2 -14.2,14.2"
           style="fill:#ffffff;fill-opacity:1;fill-rule:nonzero;stroke:none"
           id="path1519" />
        <path
           d="m 12334.1,8663.2 h -11.2 c -7.8,0 -14.2,-6.4 -14.2,-14.2 v -31 c 0,-7.9 6.4,-14.3 14.2,-14.3 h 11.2 c 7.8,0 14.2,6.4 14.2,14.3 v 31 c 0,7.8 -6.4,14.2 -14.2,14.2"
           style="fill:#ffffff;fill-opacity:1;fill-rule:nonzero;stroke:none"
           id="path1521" />
        <path
           d="m 12326.6,8443.7 c -225.7,0 -409.3,183.6 -409.3,409.3 0,225.7 183.6,409.3 409.3,409.3 225.7,0 409.3,-183.6 409.3,-409.3 0,-225.7 -183.6,-409.3 -409.3,-409.3 z m 699.6,108 -70.1,126.6 c -21.4,38.4 -30.9,82.1 -29,126 0.6,12.8 0.8,25.6 0.5,38.6 -3.4,172.4 -80.7,326.5 -200.6,433 -0.1,-0.2 -0.2,-0.4 -0.3,-0.7 -104.9,94.7 -243.8,152.3 -396.2,152.3 -155,0 -296,-59.6 -401.5,-157.1 -1,-1 -2.1,-1.9 -3.1,-2.9 -1.7,-1.6 -3.4,-3.2 -5.1,-4.8 -113.7,-108.3 -184.6,-261.1 -184.9,-430.8 -0.3,-196.2 94.3,-370.4 240.4,-479.2 100.9,-75.1 161.7,-192.3 161.7,-318.1 v -146.3 h 498.3 v 268.9 h 165.2 c 83.3,0 149.5,69.8 145.1,152.9 l -18.9,196.1 75.6,-7.3 c 23.1,5.9 34.4,32 22.9,52.8"
           style="fill:#ffffff;fill-opacity:1;fill-rule:nonzero;stroke:none"
           id="path1523" />
      </g>
    </g>
  </g>
</svg>
