<?xml version="1.0" encoding="UTF-8" standalone="no"?>
<!-- Created with Inkscape (http://www.inkscape.org/) -->

<svg
   version="1.1"
   id="svg1223"
   width="508.33679"
   height="508.33667"
   viewBox="0 0 508.33678 508.33666"
   sodipodi:docname="grom3_2.eps"
   xmlns:inkscape="http://www.inkscape.org/namespaces/inkscape"
   xmlns:sodipodi="http://sodipodi.sourceforge.net/DTD/sodipodi-0.dtd"
   xmlns="http://www.w3.org/2000/svg"
   xmlns:svg="http://www.w3.org/2000/svg">
  <defs
     id="defs1227" />
  <sodipodi:namedview
     id="namedview1225"
     pagecolor="#505050"
     bordercolor="#ffffff"
     borderopacity="1"
     inkscape:showpageshadow="0"
     inkscape:pageopacity="0"
     inkscape:pagecheckerboard="1"
     inkscape:deskcolor="#505050"
     showgrid="false" />
  <g
     id="g1231"
     inkscape:groupmode="layer"
     inkscape:label="Page 1"
     transform="matrix(1.3333333,0,0,-1.3333333,-1711.3966,1095.0566)">
    <g
       id="g1233"
       transform="scale(0.1)">
      <path
         d="m 14512.9,4495.2 -1582.7,1582.7 c -126.3,126.3 -126.3,331.2 0,457.6 l 1582.7,1582.7 c 126.4,126.3 331.3,126.3 457.6,0 l 1582.7,-1582.7 c 126.4,-126.4 126.4,-331.3 0,-457.6 L 14970.5,4495.2 c -126.3,-126.4 -331.2,-126.4 -457.6,0"
         style="fill:#505256;fill-opacity:1;fill-rule:nonzero;stroke:none"
         id="path1295" />
      <path
         d="m 14362.5,6463.4 c 35.9,57.6 117.7,160.6 279.4,113.5 0,0 88.1,-38 98.3,-115.2 0,0 38.1,136.5 214.3,118.8 176.1,-17.8 213.7,-196.7 187,-290.1 -26.7,-93.3 -80.8,-144.5 -185.4,-219 -104.7,-74.5 -185.2,-119.4 -221.8,-152.2 0,0 -118.2,81.5 -156.3,111 -38.1,29.5 -169.2,127.2 -212.6,206.4 -43.4,79 -38.8,169.2 -2.9,226.8"
         style="fill:#ffffff;fill-opacity:1;fill-rule:nonzero;stroke:none"
         id="path1365" />
      <path
         d="m 14768,6956.4 h -52.6 v 93.2 h 52.6 z m 0,-173.7 h -52.6 v 94.8 h 52.6 v -94.8"
         style="fill:#ffffff;fill-opacity:1;fill-rule:nonzero;stroke:none"
         id="path1367" />
      <path
         d="m 14263.7,6747.5 -65.9,65.9 37.2,37.2 65.9,-65.9 z m 122.8,-122.8 -67,67 37.2,37.2 67,-67 -37.2,-37.2"
         style="fill:#ffffff;fill-opacity:1;fill-rule:nonzero;stroke:none"
         id="path1369" />
      <path
         d="m 14092,6280.4 h -93.2 v 52.6 h 93.2 z m 173.7,0 h -94.8 v 52.6 h 94.8 v -52.6"
         style="fill:#ffffff;fill-opacity:1;fill-rule:nonzero;stroke:none"
         id="path1371" />
      <path
         d="m 14356.7,5884.5 -37.2,37.2 67,67 37.2,-37.3 z m -121.7,-121.8 -37.2,37.2 65.9,66 37.2,-37.3 -65.9,-65.9"
         style="fill:#ffffff;fill-opacity:1;fill-rule:nonzero;stroke:none"
         id="path1373" />
      <path
         d="m 14768,5735.9 h -52.6 v 94.7 h 52.6 z m 0,-172.2 h -52.6 v 93.2 h 52.6 v -93.2"
         style="fill:#ffffff;fill-opacity:1;fill-rule:nonzero;stroke:none"
         id="path1375" />
      <path
         d="m 15126.7,5884.5 -67,66.9 37.3,37.3 66.9,-67 z m 121.8,-121.8 -66,65.9 37.3,37.3 65.9,-66 -37.2,-37.2"
         style="fill:#ffffff;fill-opacity:1;fill-rule:nonzero;stroke:none"
         id="path1377" />
      <path
         d="m 15312.5,6280.4 h -94.7 v 52.6 h 94.7 z m 172.2,0 h -93.2 v 52.6 h 93.2 v -52.6"
         style="fill:#ffffff;fill-opacity:1;fill-rule:nonzero;stroke:none"
         id="path1379" />
      <path
         d="m 15219.8,6747.5 -37.3,37.2 66,65.9 37.2,-37.2 z m -122.8,-122.8 -37.3,37.2 67,67 37.2,-37.2 -66.9,-67"
         style="fill:#ffffff;fill-opacity:1;fill-rule:nonzero;stroke:none"
         id="path1381" />
    </g>
  </g>
</svg>
