<?xml version="1.0" encoding="UTF-8" standalone="no"?>
<!-- Created with Inkscape (http://www.inkscape.org/) -->

<svg
   version="1.1"
   id="svg1223"
   width="508.33679"
   height="508.33667"
   viewBox="0 0 508.33678 508.33666"
   sodipodi:docname="grom3_2.eps"
   xmlns:inkscape="http://www.inkscape.org/namespaces/inkscape"
   xmlns:sodipodi="http://sodipodi.sourceforge.net/DTD/sodipodi-0.dtd"
   xmlns="http://www.w3.org/2000/svg"
   xmlns:svg="http://www.w3.org/2000/svg">
  <defs
     id="defs1227" />
  <sodipodi:namedview
     id="namedview1225"
     pagecolor="#505050"
     bordercolor="#ffffff"
     borderopacity="1"
     inkscape:showpageshadow="0"
     inkscape:pageopacity="0"
     inkscape:pagecheckerboard="1"
     inkscape:deskcolor="#505050"
     showgrid="false" />
  <g
     id="g1231"
     inkscape:groupmode="layer"
     inkscape:label="Page 1"
     transform="matrix(1.3333333,0,0,-1.3333333,-1711.3966,1723.03)">
    <g
       id="g1233"
       transform="scale(0.1)">
      <path
         d="m 14512.9,9205 -1582.7,1582.7 c -126.3,126.3 -126.3,331.2 0,457.6 l 1582.7,1582.7 c 126.4,126.3 331.3,126.3 457.6,0 l 1582.7,-1582.7 c 126.4,-126.4 126.4,-331.3 0,-457.6 L 14970.5,9205 c -126.3,-126.4 -331.2,-126.4 -457.6,0"
         style="fill:#3e98ba;fill-opacity:1;fill-rule:nonzero;stroke:none"
         id="path1289" />
      <path
         d="m 15529.8,10515.2 c -67.1,47.7 -170,22.4 -234.1,107.4 0,0 -23.9,26.8 29.8,92.4 53.7,65.7 58.1,170 44.7,250.6 -13.4,80.5 -89.4,134.1 -168.4,134.1 -79.1,0 -155.1,-53.6 -168.5,-134.1 -13.5,-80.6 -9,-184.9 44.7,-250.6 27.1,-33.1 34.4,-56.3 35,-71.2 24.9,-8.2 49.8,-19.1 73.1,-35.6 101.2,-72 95.7,-210.6 91.9,-249.5 h 302.5 c 0,0 16.4,108.8 -50.7,156.5"
         style="fill:#ffffff;fill-opacity:1;fill-rule:nonzero;stroke:none"
         id="path1457" />
      <path
         d="m 14295.3,10608.2 c 23.9,16.9 49.6,28 75.1,36.2 0.9,15 8.4,38 35.1,70.6 53.6,65.7 58.1,170 44.7,250.6 -13.4,80.5 -89.5,134.1 -168.5,134.1 -79,0 -155.1,-53.6 -168.5,-134.1 -13.4,-80.6 -8.9,-184.9 44.7,-250.6 53.7,-65.6 29.9,-92.4 29.9,-92.4 -64.2,-85 -167,-59.7 -234.1,-107.4 -67.1,-47.7 -50.7,-156.5 -50.7,-156.5 h 300.4 c -3.8,38.9 -9.3,177.5 91.9,249.5"
         style="fill:#ffffff;fill-opacity:1;fill-rule:nonzero;stroke:none"
         id="path1459" />
      <path
         d="m 14772.1,11557.7 c 0,-17.4 -14.1,-31.4 -31.4,-31.4 v 0 c -17.3,0 -31.4,14 -31.4,31.4 v 85.2 c 0,17.3 14.1,31.3 31.4,31.3 v 0 c 17.3,0 31.4,-14 31.4,-31.3 v -85.2"
         style="fill:#ffffff;fill-opacity:1;fill-rule:nonzero;stroke:none"
         id="path1461" />
      <path
         d="m 14918.5,11500 c -8.9,-14.9 -28.1,-19.8 -43,-10.9 v 0 c -14.9,8.9 -19.8,28.2 -10.9,43.1 l 43.7,73.1 c 8.9,14.9 28.1,19.8 43,10.9 v 0 c 14.9,-8.9 19.7,-28.1 10.9,-43 l -43.7,-73.2"
         style="fill:#ffffff;fill-opacity:1;fill-rule:nonzero;stroke:none"
         id="path1463" />
      <path
         d="m 15014.7,11375.4 c -15.2,-8.2 -34.3,-2.5 -42.5,12.8 v 0 c -8.2,15.2 -2.5,34.2 12.7,42.5 l 75,40.4 c 15.2,8.3 34.3,2.6 42.5,-12.7 v 0 c 8.2,-15.2 2.6,-34.3 -12.7,-42.5 l -75,-40.5"
         style="fill:#ffffff;fill-opacity:1;fill-rule:nonzero;stroke:none"
         id="path1465" />
      <path
         d="m 15033.5,11219.2 c -17.3,0.7 -30.7,15.4 -30,32.7 v 0 c 0.8,17.3 15.4,30.8 32.7,30 l 85.1,-3.7 c 17.4,-0.7 30.8,-15.3 30,-32.7 v 0 c -0.7,-17.3 -15.3,-30.7 -32.7,-30 l -85.1,3.7"
         style="fill:#ffffff;fill-opacity:1;fill-rule:nonzero;stroke:none"
         id="path1467" />
      <path
         d="m 14562.9,11500 c 8.9,-14.9 28.1,-19.8 43,-10.9 v 0 c 14.9,8.9 19.8,28.2 10.9,43.1 l -43.7,73.1 c -8.9,14.9 -28.1,19.8 -43,10.9 v 0 c -14.9,-8.9 -19.7,-28.1 -10.9,-43 l 43.7,-73.2"
         style="fill:#ffffff;fill-opacity:1;fill-rule:nonzero;stroke:none"
         id="path1469" />
      <path
         d="m 14466.7,11375.4 c 15.2,-8.2 34.3,-2.5 42.5,12.8 v 0 c 8.2,15.2 2.5,34.2 -12.7,42.5 l -75,40.4 c -15.2,8.3 -34.3,2.6 -42.5,-12.7 v 0 c -8.2,-15.2 -2.5,-34.3 12.7,-42.5 l 75,-40.5"
         style="fill:#ffffff;fill-opacity:1;fill-rule:nonzero;stroke:none"
         id="path1471" />
      <path
         d="m 14447.9,11219.2 c 17.3,0.7 30.7,15.4 30,32.7 v 0 c -0.8,17.3 -15.4,30.8 -32.7,30 l -85.1,-3.7 c -17.4,-0.7 -30.8,-15.3 -30,-32.7 v 0 c 0.7,-17.3 15.3,-30.7 32.7,-30 l 85.1,3.7"
         style="fill:#ffffff;fill-opacity:1;fill-rule:nonzero;stroke:none"
         id="path1473" />
      <path
         d="m 15146.3,10552.3 c -23.2,16.5 -49.8,25.8 -77.9,33.1 -72.4,18.9 -154.4,23.9 -211.5,99.6 0,0 -29.5,33.2 36.8,114.3 66.4,81.2 71.9,210.2 55.3,309.8 -2.2,13.5 -5.9,26.4 -10.9,38.7 -3.6,-20.1 -8.5,-26.4 -12,-30.4 -2.3,-3.3 -8.2,-14.3 -12.9,-23.1 -13.6,-25.4 -32.1,-59.9 -52.7,-82.7 -1.4,-2.1 -4.1,-6.4 -6,-9.4 -0.6,-0.9 -1.1,-1.7 -1.6,-2.4 1.4,-4.7 2.3,-10.6 1.3,-17.5 -0.4,-2.2 -0.9,-4.3 -1.5,-6.2 1.2,-4.2 1.9,-9.1 1.2,-14.6 -0.2,-2.3 -0.7,-4.4 -1.3,-6.4 1.3,-4.3 2,-9.3 1.3,-14.9 -0.2,-2.3 -0.7,-4.5 -1.3,-6.6 0.9,-3.2 1.5,-6.7 1.5,-10.6 0,-4.5 -0.7,-8.5 -1.9,-12.1 1.6,-8 0.5,-16.4 -3.2,-23.8 -2.6,-5.3 -3.6,-7.3 -32.3,-35.5 -29.5,-28.9 -30.7,-29.3 -37.5,-32 -6.7,-2.7 -12.1,-2.8 -25,-2.8 v 0 c -44.7,0 -50.2,2.6 -58.3,8.4 -2.5,1.8 -4.5,3.6 -21,18.9 -6.8,6.4 -18,16.7 -21.6,19.9 -9.7,6.8 -13.7,16.5 -15.3,24.8 -5.6,6.9 -8.4,14.8 -8.4,23.5 0,3.7 0.5,7.1 1.4,10.1 -1,3.6 -1.4,7.1 -1.4,10 0,3.8 0.5,7.4 1.4,10.7 -1.5,4.7 -2.1,9.6 -1.6,14.7 0.2,2.8 0.9,6.4 2.3,10.3 l -1,29.5 c -1,1.9 -2.1,4.1 -3.4,6.8 -1.3,2.5 -3.1,6.3 -4.4,8.8 -20,22.8 -37.9,56.3 -51.2,81.1 -4.8,8.8 -10.7,19.8 -12.9,23.1 -3.9,4.4 -9.4,11.5 -13,36.3 -6.2,-13.9 -10.8,-28.8 -13.4,-44.6 -16.6,-99.6 -11.1,-228.6 55.3,-309.8 66.4,-81.1 36.8,-114.3 36.8,-114.3 -56.7,-75.2 -137.9,-80.6 -210,-99.2 -28.6,-7.4 -55.8,-16.7 -79.4,-33.5 -83,-59 -62.7,-193.6 -62.7,-193.6 h 9.3 378.7 80.3 82.3 378.8 7.2 c 0,0 20.3,134.6 -62.7,193.6"
         style="fill:#ffffff;fill-opacity:1;fill-rule:nonzero;stroke:none"
         id="path1475" />
      <path
         d="m 14867,11160.3 c -33.4,-164 -124.6,-138.6 -124.6,-138.6 0,0 -76.8,-18.3 -129.1,128.1 0,0 -21,98.1 -10.4,174.5 6.2,79.9 70.6,115 140.8,115 74.3,0 134.6,-40.2 134.6,-130.5 0,-1.8 1.5,-85.5 -11.3,-148.5 z m 41,80.1 v 89.2 c -15.1,149.8 -165.6,140.3 -165.6,140.3 0,0 -150.4,9.5 -165.6,-140.3 v -89.2 c 0,0 -1.7,-89.2 8.4,-101 10.2,-11.8 37.7,-75.8 66,-106.1 2.1,-3.2 12.1,-24.4 13.7,-26.5 l 1.1,-33.7 c 0,0 4.9,-1.6 6.5,-6.9 0,0 1.1,-3.4 -1.2,-4.9 -2.3,-1.5 -7.2,-2.3 -7.6,-6.5 -0.3,-4.1 7.2,-7.2 7.2,-7.2 0,0 6.9,-4.2 1.2,-7.6 -5.7,-3.4 -8,-3.8 -8,-7.6 0,-3.7 6.1,-4.9 6.1,-7.5 0,-2.7 -6.1,-8.8 -6.1,-12.6 0,-3.8 7.2,-6 7.2,-8.7 0,-2.7 -0.4,-10.2 2.3,-11.7 2.6,-1.6 39.8,-36.9 42.5,-38.8 2.6,-1.9 48.5,-2.2 50.5,-1.5 1.9,0.8 50.1,47.8 51.6,50.9 1.5,3 -3.4,6 -4.6,6.4 -1.1,0.4 -2.3,4.2 0,6.1 2.3,1.9 6.1,4.9 6.1,8 0,3 -7.2,7.9 -7.2,10.6 0,2.6 6.8,7.2 7.2,10.6 0.4,3.4 -6.9,7.2 -7.2,11 -0.4,3.8 6.8,6.9 7.2,10.3 0.4,3.4 -5.7,7.2 -5.7,11 0,3.8 5.3,6 6.1,11 0.7,4.9 -5.7,7.9 -3.9,19.3 2.2,2.4 15.1,23.6 17.4,26.5 28.4,30.3 55.9,94.3 66,106.1 10.1,11.8 8.4,101 8.4,101"
         style="fill:#ffffff;fill-opacity:1;fill-rule:nonzero;stroke:none"
         id="path1477" />
    </g>
  </g>
</svg>
